<svg width="16" height="16" viewBox="0 0 16 16" fill="none" xmlns="http://www.w3.org/2000/svg">
<g id="&#227;&#131;&#150;&#227;&#131;&#173;&#227;&#130;&#176;&#227;&#130;&#146;&#230;&#155;&#184;&#227;&#129;&#143;&#227;&#130;&#162;&#227;&#130;&#164;&#227;&#130;&#179;&#227;&#131;&#179; 1" clip-path="url(#clip0_12_462)">
<g id="Group">
<path id="Vector" d="M12.8359 7.03037C12.819 7.36186 12.5585 7.77114 12.1387 8.16449L12.1387 13.348C12.1382 13.4815 12.0838 13.5946 11.9918 13.683C11.8993 13.7697 11.7794 13.8209 11.6383 13.8218L2.88916 13.8218C2.74909 13.8209 2.62868 13.7697 2.53622 13.683C2.4442 13.5946 2.39021 13.4815 2.38974 13.348L2.38974 5.06444C2.39021 4.93141 2.4442 4.81781 2.53622 4.72942C2.62868 4.64278 2.74909 4.59152 2.88916 4.59064L7.53591 4.59064C7.91173 4.11418 8.3498 3.62624 8.84603 3.17897C8.84832 3.17631 8.85017 3.17365 8.85245 3.17102L2.88916 3.17102C2.33984 3.17057 1.83494 3.38405 1.47559 3.72527C1.11441 4.06649 0.88918 4.54383 0.889649 5.06447L0.889649 13.348C0.88918 13.8687 1.11441 14.3469 1.47559 14.6872C1.83491 15.0284 2.33984 15.2414 2.88916 15.2414L11.6384 15.2414C12.1886 15.2414 12.6936 15.0284 13.0529 14.6872C13.4132 14.3469 13.6388 13.8686 13.6384 13.348L13.6384 6.51413C13.6384 6.51413 13.6347 6.50972 13.6287 6.50528C13.4012 6.69358 13.1362 6.87301 12.8359 7.03037Z" fill="white"/>
<path id="Vector_2" d="M15.0912 0.758636C15.0912 0.758636 14.6316 1.42162 11.6296 2.40234C8.5685 3.40256 6.68433 7.47142 6.68433 7.47142C6.23069 8.305 4.43761 11.7683 4.43761 11.7683C3.94369 12.6629 4.84867 13.1915 5.37968 12.2678C6.39727 10.4945 7.05417 8.87424 8.60142 8.82828C10.8587 8.7611 12.4022 6.85794 11.9165 6.94634C11.2775 7.21506 9.86851 6.96668 10.6984 6.84292C12.6906 6.68868 13.9183 5.24295 13.5183 5.14485C12.8119 5.40738 12.1532 5.15811 12.0241 5.08296C15.5402 4.67014 15.0912 0.758636 15.0912 0.758636Z" fill="white"/>
</g>
</g>
<defs>
<clipPath id="clip0_12_462">
<rect width="15" height="14.4828" fill="white" transform="translate(0.5 0.758636)"/>
</clipPath>
</defs>
</svg>
