<svg width="100" height="80" viewBox="0 0 100 80" fill="none" xmlns="http://www.w3.org/2000/svg">
<mask id="mask0_32_455" style="mask-type:luminance" maskUnits="userSpaceOnUse" x="11" y="19" width="78" height="42">
<path d="M11.6001 40C11.6001 51.1559 28.7927 60.1998 50.0001 60.1998C71.2075 60.1998 88.4002 51.1559 88.4002 40C88.4002 28.8441 71.2075 19.8001 50.0001 19.8001C28.7927 19.8001 11.6001 28.8441 11.6001 40Z" fill="white"/>
</mask>
<g mask="url(#mask0_32_455)">
<path d="M11.6001 40C11.6001 51.1559 28.7927 60.1998 50.0001 60.1998C71.2075 60.1998 88.4002 51.1559 88.4002 40C88.4002 28.8441 71.2075 19.8001 50.0001 19.8001C28.7927 19.8001 11.6001 28.8441 11.6001 40Z" fill="url(#paint0_radial_32_455)"/>
</g>
<mask id="mask1_32_455" style="mask-type:luminance" maskUnits="userSpaceOnUse" x="10" y="17" width="80" height="46">
<path d="M10 17.5H90V62.5H10V17.5Z" fill="white"/>
</mask>
<g mask="url(#mask1_32_455)">
<path d="M50.0001 58.7001C70.3791 58.7001 86.9001 50.3277 86.9001 39.9999C86.9001 29.6723 70.3791 21.2998 50.0001 21.2998C29.6211 21.2998 13.1001 29.6723 13.1001 39.9999C13.1001 50.3277 29.6211 58.7001 50.0001 58.7001Z" fill="#777BB3"/>
</g>
<mask id="mask2_32_455" style="mask-type:luminance" maskUnits="userSpaceOnUse" x="10" y="17" width="80" height="46">
<path d="M10 17.5H90V62.5H10V17.5Z" fill="white"/>
</mask>
<g mask="url(#mask2_32_455)">
<path d="M32.463 42.3186C34.1387 42.3186 35.3897 42.0095 36.1812 41.4004C36.9643 40.7974 37.5051 39.7529 37.7886 38.2958C38.0529 36.9338 37.9522 35.9829 37.4894 35.4697C37.0162 34.9455 35.9932 34.6797 34.4487 34.6797H31.7708L30.2862 42.3186H32.463ZM23.7043 51.7283C23.58 51.7283 23.4619 51.6727 23.3829 51.5766C23.3037 51.4806 23.2716 51.3542 23.2954 51.2322L27.2298 30.989C27.2679 30.7933 27.4394 30.6519 27.6389 30.6519H36.1186C38.7836 30.6519 40.7672 31.3755 42.014 32.8029C43.2675 34.2377 43.6545 36.2434 43.1644 38.7641C42.965 39.7911 42.6219 40.7448 42.1448 41.5987C41.6672 42.4536 41.0359 43.2445 40.2683 43.9501C39.3494 44.8101 38.3094 45.4337 37.18 45.8006C36.0684 46.1627 34.6409 46.3463 32.9372 46.3463H29.5036L28.523 51.391C28.485 51.5869 28.3136 51.7283 28.1141 51.7283H23.7043Z" fill="black"/>
<path d="M32.1143 35.0962H34.4488C36.3128 35.0962 36.9603 35.5052 37.1803 35.7489C37.5453 36.1537 37.6142 37.007 37.3796 38.2166C37.116 39.5707 36.6274 40.5309 35.9271 41.0701C35.2102 41.622 34.0446 41.9017 32.4631 41.9017H30.7917L32.1143 35.0962ZM36.1186 30.2351H27.6388C27.2399 30.2351 26.897 30.5178 26.8209 30.9094L22.8864 51.1526C22.8389 51.3969 22.9031 51.6495 23.0613 51.8416C23.2196 52.0337 23.4554 52.1448 23.7043 52.1448H28.1141C28.5131 52.1448 28.856 51.862 28.9321 51.4705L29.8471 46.7628H32.9373C34.6848 46.7628 36.1559 46.5723 37.3093 46.1966C38.4956 45.8112 39.587 45.1577 40.5529 44.2544C41.3518 43.5194 42.0099 42.6944 42.5085 41.802C43.0073 40.9094 43.3656 39.9139 43.5735 38.8434C44.0895 36.1901 43.6703 34.0653 42.3278 32.5287C40.9984 31.0067 38.9092 30.2351 36.1186 30.2351ZM29.7807 42.7351H32.4631C34.241 42.7351 35.5653 42.4002 36.4354 41.7303C37.3057 41.0603 37.8927 39.9421 38.1977 38.3752C38.4895 36.8707 38.3566 35.8091 37.7989 35.1906C37.2406 34.5721 36.1241 34.2628 34.4488 34.2628H31.4274L29.7807 42.7351ZM36.1186 31.0684C38.6696 31.0684 40.5306 31.7378 41.7003 33.0769C42.8699 34.4159 43.2221 36.2849 42.7554 38.6845C42.5634 39.673 42.2385 40.5767 41.7811 41.3955C41.3232 42.2148 40.7253 42.9639 39.9864 43.6432C39.1059 44.4673 38.1277 45.0545 37.0513 45.4042C35.9749 45.7549 34.6039 45.9295 32.9373 45.9295H29.16L28.1141 51.3114H23.7043L27.6388 31.0684H36.1186Z" fill="white"/>
<path d="M53.2752 46.3463C53.1508 46.3463 53.0329 46.2908 52.9538 46.1946C52.8745 46.0987 52.8425 45.9724 52.8662 45.8502L54.6066 36.8934C54.7722 36.0416 54.7313 35.4302 54.4918 35.1719C54.3451 35.014 53.9045 34.7491 52.6019 34.7491H49.4488L47.2607 46.0091C47.2226 46.2049 47.0511 46.3463 46.8516 46.3463H42.4766C42.3522 46.3463 42.2343 46.2908 42.1551 46.1946C42.0759 46.0987 42.0438 45.9723 42.0676 45.8502L46.002 25.607C46.0401 25.4113 46.2116 25.2699 46.4111 25.2699H50.7861C50.9105 25.2699 51.0284 25.3255 51.1076 25.4215C51.1868 25.5176 51.2188 25.6438 51.1951 25.766L50.2457 30.6519H53.6376C56.2216 30.6519 57.9738 31.1074 58.9944 32.0446C60.0347 33.0008 60.3593 34.5295 59.9593 36.589L58.1287 46.0091C58.0907 46.2049 57.9193 46.3463 57.7197 46.3463H53.2752Z" fill="black"/>
<path d="M50.7863 24.8532H46.4113C46.0122 24.8532 45.6693 25.136 45.5932 25.5275L41.6588 45.7707C41.6113 46.015 41.6754 46.2677 41.8338 46.4597C41.9921 46.6518 42.2279 46.7629 42.4768 46.7629H46.8518C47.2507 46.7629 47.5938 46.4802 47.6699 46.0886L49.7925 35.1657H52.6021C53.9025 35.1657 54.1754 35.4435 54.1864 35.4554C54.2653 35.5403 54.369 35.9334 54.1978 36.8139L52.4574 45.7707C52.4099 46.015 52.474 46.2677 52.6324 46.4597C52.7907 46.6518 53.0265 46.7629 53.2754 46.7629H57.7199C58.1188 46.7629 58.4618 46.4802 58.5379 46.0886L60.3683 36.6685C60.7979 34.4572 60.4304 32.7985 59.2765 31.7379C58.1754 30.7267 56.331 30.2352 53.6378 30.2352H50.7511L51.6043 25.8456C51.6517 25.6013 51.5876 25.3485 51.4293 25.1566C51.271 24.9645 51.0351 24.8532 50.7863 24.8532ZM50.7863 25.6866L49.7403 31.0685H53.6378C56.0901 31.0685 57.7817 31.4966 58.7126 32.3516C59.6436 33.2071 59.9225 34.5934 59.5504 36.5096L57.7199 45.9296H53.2754L55.0158 36.9729C55.2139 35.9541 55.1411 35.2591 54.7972 34.8885C54.4532 34.5179 53.7214 34.3324 52.6021 34.3324H49.1054L46.8518 45.9296H42.4768L46.4113 25.6866H50.7863Z" fill="white"/>
<path d="M66.8817 42.3186C68.5574 42.3186 69.8084 42.0095 70.5999 41.4004C71.383 40.7976 71.9238 39.753 72.2074 38.2958C72.4717 36.9338 72.371 35.9829 71.9081 35.4697C71.4349 34.9455 70.4118 34.6797 68.8674 34.6797H66.1895L64.7049 42.3186H66.8817ZM58.1231 51.7283C57.9988 51.7283 57.8807 51.6727 57.8017 51.5766C57.7225 51.4806 57.6903 51.3542 57.7141 51.2322L61.6485 30.989C61.6867 30.7933 61.8581 30.6519 62.0577 30.6519H70.5373C73.2024 30.6519 75.1859 31.3755 76.4328 32.8029C77.6863 34.2376 78.0732 36.2433 77.5832 38.7641C77.3835 39.7911 77.0406 40.7448 76.5635 41.5987C76.0859 42.4536 75.4546 43.2445 74.687 43.9501C73.7681 44.8101 72.7281 45.4337 71.5987 45.8006C70.4871 46.1627 69.0596 46.3463 67.3559 46.3463H63.9221L62.942 51.391C62.9038 51.5869 62.7324 51.7283 62.5328 51.7283H58.1231Z" fill="black"/>
<path d="M66.533 35.0962H68.8675C70.7315 35.0962 71.379 35.5052 71.599 35.7489C71.9641 36.1537 72.033 37.007 71.7983 38.2164C71.5347 39.5707 71.0459 40.5309 70.3458 41.0701C69.6289 41.622 68.4633 41.9017 66.8818 41.9017H65.2105L66.533 35.0962ZM70.5373 30.2351H62.0576C61.6587 30.2351 61.3158 30.5178 61.2397 30.9094L57.3052 51.1526C57.2577 51.3969 57.3219 51.6495 57.4801 51.8416C57.6384 52.0337 57.8743 52.1448 58.1232 52.1448H62.5329C62.9318 52.1448 63.2748 51.862 63.3509 51.4705L64.2658 46.7628H67.3559C69.1034 46.7628 70.5745 46.5723 71.728 46.1966C72.9143 45.8112 74.0059 45.1576 74.9719 44.2541C75.7708 43.5192 76.4286 42.6944 76.9272 41.802C77.4259 40.9094 77.7843 39.9139 77.9922 38.8434C78.5082 36.1899 78.089 34.0652 76.7465 32.5285C75.4171 31.0067 73.328 30.2351 70.5373 30.2351ZM64.1996 42.7351H66.8818C68.6597 42.7351 69.984 42.4002 70.8541 41.7303C71.7245 41.0603 72.3114 39.9421 72.6164 38.3752C72.9083 36.8707 72.7754 35.8091 72.2176 35.1906C71.6593 34.5721 70.5427 34.2628 68.8675 34.2628H65.8461L64.1996 42.7351ZM70.5373 31.0684C73.0883 31.0684 74.9493 31.7378 76.119 33.0769C77.2887 34.4159 77.6408 36.2849 77.1741 38.6845C76.982 39.673 76.6572 40.5767 76.1998 41.3955C75.7419 42.2148 75.144 42.9639 74.4051 43.6432C73.5245 44.4673 72.5464 45.0545 71.47 45.4042C70.3936 45.7549 69.0226 45.9295 67.3559 45.9295H63.5787L62.5329 51.3114H58.1232L62.0576 31.0684H70.5373Z" fill="white"/>
</g>
<defs>
<radialGradient id="paint0_radial_32_455" cx="0" cy="0" r="1" gradientUnits="userSpaceOnUse" gradientTransform="translate(34.6557 26.9018) scale(50.4247 50.4247)">
<stop stop-color="#AEB2D5"/>
<stop offset="0.3" stop-color="#AEB2D5"/>
<stop offset="0.75" stop-color="#484C89"/>
<stop offset="1" stop-color="#484C89"/>
</radialGradient>
</defs>
</svg>
