<svg width="100" height="100" viewBox="0 0 100 100" fill="none" xmlns="http://www.w3.org/2000/svg">
<path d="M85.4167 10.4166H14.5834L20.8334 81.25L50 89.5833L79.1667 81.25L85.4167 10.4166Z" fill="#0277BD"/>
<path d="M50 16.6666V83.125L73.3333 76.4583L78.5417 16.6666H50Z" fill="#039BE5"/>
<path d="M68.9583 27.0834H50V35.4167H60.2083L59.5833 43.75H50V52.0834H59.1667L58.5417 61.4584L50 64.375V73.125L66.4583 67.7084L67.9167 43.75L68.9583 27.0834Z" fill="white"/>
<path d="M50 27.0834V35.4167H31.4584L30.8334 27.0834H50ZM40.4167 43.75L40.8334 52.0834H50V43.75H40.4167ZM41.25 56.25H32.9167L33.5417 67.7084L50 73.125V64.375L41.4584 61.4584L41.25 56.25Z" fill="#EEEEEE"/>
</svg>
