<svg width="100" height="100" viewBox="0 0 100 100" fill="none" xmlns="http://www.w3.org/2000/svg">
<path d="M85.4167 10.4166H14.5834L20.8334 81.25L50 89.5833L79.1667 81.25L85.4167 10.4166Z" fill="#E65100"/>
<path d="M50 16.6666V83.125L73.3333 76.4583L78.5417 16.6666H50Z" fill="#FF6D00"/>
<path d="M50 52.0834V43.75H67.9167L66.4583 67.7084L50 73.125V64.375L58.5417 61.4584L59.1667 52.0834H50ZM68.5417 35.4167L69.1667 27.0834H50V35.4167H68.5417Z" fill="white"/>
<path d="M50 64.375V73.125L33.5416 67.7084L32.7083 56.25H41.0416L41.4583 61.4584L50 64.375ZM39.7916 35.4167H50V27.0834H31.0416L32.5 52.0834H50V43.75H40.4166L39.7916 35.4167Z" fill="#EEEEEE"/>
</svg>
