<svg width="100" height="101" viewBox="0 0 100 101" fill="none" xmlns="http://www.w3.org/2000/svg">
<path d="M54.1666 35.9167H37.5C29.4458 35.9167 22.9166 29.3875 22.9166 21.3333C22.9166 13.2792 29.4458 6.75 37.5 6.75H54.1666V35.9167Z" fill="#E64A19"/>
<path d="M52.0833 65.0834H37.5C29.4458 65.0834 22.9166 58.5542 22.9166 50.5001C22.9166 42.4459 29.4458 35.9167 37.5 35.9167H52.0833V65.0834Z" fill="#7C4DFF"/>
<path d="M37.5 94.2499C29.4458 94.2499 22.9166 87.7208 22.9166 79.6666C22.9166 71.6124 29.4458 65.0833 37.5 65.0833H52.0833V79.6666C52.0833 87.7208 45.5541 94.2499 37.5 94.2499Z" fill="#66BB6A"/>
<path d="M68.7501 35.9167H54.1667V6.75H68.7501C76.8042 6.75 83.3334 13.2792 83.3334 21.3333C83.3334 29.3875 76.8042 35.9167 68.7501 35.9167Z" fill="#FF7043"/>
<path d="M68.7501 65.0832C76.8042 65.0832 83.3334 58.554 83.3334 50.4998C83.3334 42.4457 76.8042 35.9165 68.7501 35.9165C60.6959 35.9165 54.1667 42.4457 54.1667 50.4998C54.1667 58.554 60.6959 65.0832 68.7501 65.0832Z" fill="#29B6F6"/>
</svg>
