<svg width="116" height="22" viewBox="0 0 116 22" fill="none" xmlns="http://www.w3.org/2000/svg">
<path d="M116 12.2092C116 12.4887 115.926 12.8669 115.778 13.3437C115.63 13.8042 115.457 14.2646 115.26 14.725C115.063 15.1854 114.898 15.5472 114.767 15.8103C114.339 16.6489 113.805 17.4053 113.163 18.0794C112.522 18.7536 111.782 19.288 110.944 19.6827C110.121 20.0773 109.209 20.2746 108.206 20.2746C107.334 20.2746 106.487 20.1184 105.665 19.806C104.843 19.4936 104.169 19.0249 103.643 18.4001C103.117 17.7588 102.853 16.9531 102.853 15.9829C102.853 15.6705 102.895 15.2265 102.977 14.651C103.059 14.059 103.149 13.4588 103.248 12.8504C103.363 12.2256 103.462 11.7158 103.544 11.3212C103.56 11.1897 103.528 11.091 103.445 11.0252C103.363 10.943 103.215 10.9266 103.001 10.9759C102.673 11.0581 102.36 11.2061 102.064 11.4199C101.785 11.6336 101.48 11.8721 101.152 12.1352C100.971 12.2831 100.716 12.5298 100.387 12.8751C100.074 13.204 99.7867 13.5328 99.5236 13.8617C99.277 14.1741 99.0797 14.4619 98.9317 14.725C98.8001 14.9881 98.6932 15.1936 98.611 15.3416C98.3808 15.7527 98.1342 16.172 97.8711 16.5995C97.608 17.0271 97.4107 17.3642 97.2791 17.6108C97.2462 17.6766 97.1969 17.767 97.1311 17.8821C97.0818 17.9808 97.0407 18.063 97.0078 18.1288C96.8434 18.4741 96.6543 18.6467 96.4405 18.6467C96.4076 18.6467 96.2843 18.581 96.0705 18.4494C95.8732 18.3014 95.643 18.1288 95.3799 17.9315C95.1333 17.7341 94.9113 17.5615 94.7139 17.4135C94.5331 17.2491 94.4426 17.1422 94.4426 17.0928C94.4426 16.9613 94.4755 16.8544 94.5413 16.7722C94.6071 16.69 94.6564 16.616 94.6893 16.5502C94.8373 16.3529 95.0346 16.098 95.2812 15.7856C95.5443 15.4732 95.791 15.169 96.0212 14.873C96.2678 14.5606 96.4405 14.3221 96.5392 14.1577C96.8845 13.5822 97.2544 13.0067 97.6491 12.4311C98.0437 11.8556 98.389 11.2883 98.685 10.7292C99.6223 9.00269 100.56 7.26791 101.497 5.52491C102.451 3.78191 103.355 2.02247 104.21 0.246582L106.183 1.0112C106.315 1.07697 106.446 1.13453 106.578 1.18386C106.726 1.21674 106.866 1.27429 106.997 1.35651C107.162 1.42228 107.244 1.51272 107.244 1.62783C107.244 1.6936 107.194 1.81693 107.096 1.9978C106.997 2.17868 106.89 2.35956 106.775 2.54044C106.66 2.70487 106.586 2.81175 106.553 2.86108C106.405 3.07485 106.134 3.47771 105.739 4.06967C105.345 4.64519 104.876 5.33581 104.333 6.14154C103.791 6.93082 103.232 7.75299 102.656 8.60805C102.081 9.46311 101.546 10.2606 101.053 11.0006C101.957 10.4744 102.804 10.1291 103.593 9.96463C103.889 9.89885 104.177 9.85775 104.457 9.8413C104.736 9.82486 105.016 9.83308 105.295 9.86597C105.509 9.88241 105.657 9.96463 105.739 10.1126C105.838 10.2606 105.846 10.4497 105.764 10.6799C105.747 10.7621 105.698 10.9677 105.616 11.2965C105.55 11.6254 105.476 11.9872 105.394 12.3818C105.328 12.7765 105.271 13.1135 105.221 13.3931C105.123 14.0508 105.073 14.6921 105.073 15.317C105.073 16.172 105.312 16.8215 105.789 17.2655C106.282 17.7095 106.94 17.9315 107.762 17.9315C108.502 17.9315 109.217 17.7917 109.908 17.5121C110.615 17.2326 111.281 16.8626 111.906 16.4022C112.53 15.9254 113.073 15.4238 113.533 14.8976C113.895 14.4701 114.232 14.0179 114.545 13.5411C114.857 13.0642 115.12 12.5874 115.334 12.1105C115.367 12.0283 115.408 11.9543 115.457 11.8885C115.523 11.8063 115.605 11.7652 115.704 11.7652C115.835 11.7652 115.918 11.8227 115.951 11.9378C115.983 12.0365 116 12.1269 116 12.2092Z" fill="#333333"/>
<path d="M87.9806 11.4939C87.9806 12.2009 87.7668 12.8505 87.3393 13.4424C86.9282 14.0344 86.402 14.4948 85.7607 14.8237C85.4976 14.9388 85.1687 15.0703 84.7741 15.2183C84.3959 15.3499 84.0588 15.4156 83.7628 15.4156C83.7464 15.4156 83.6724 15.4074 83.5408 15.391C83.4257 15.3745 83.3682 15.3334 83.3682 15.2676C83.3682 15.2183 83.4011 15.1772 83.4668 15.1443C83.5326 15.1114 83.5819 15.0868 83.6148 15.0703C83.9437 14.9223 84.2479 14.7415 84.5274 14.5277C84.8234 14.3139 85.0618 14.0591 85.2427 13.7631C85.6209 13.1382 85.81 12.4805 85.81 11.7899C85.81 11.2143 85.6456 10.7622 85.3167 10.4333C85.0043 10.088 84.5521 9.91532 83.9601 9.91532C83.138 9.91532 82.324 10.0304 81.5183 10.2606C80.729 10.4908 79.9644 10.7704 79.2244 11.0992C79.5697 12.2503 79.9808 13.3849 80.4577 14.503C80.9345 15.6212 81.4525 16.7147 82.0116 17.7835C82.2418 18.2275 82.4967 18.655 82.7762 19.0661C83.0558 19.4936 83.3435 19.9129 83.6395 20.324C83.6724 20.3569 83.7382 20.4391 83.8368 20.5706C83.9355 20.7022 84.0259 20.8255 84.1081 20.9406C84.2068 21.0557 84.2561 21.1297 84.2561 21.1626C84.2561 21.327 84.1575 21.4092 83.9601 21.4092C83.8121 21.4092 83.6148 21.3517 83.3682 21.2366C83.138 21.1215 82.9571 21.0228 82.8255 20.9406C81.8718 20.2664 81.0414 19.4196 80.3344 18.4001C79.6437 17.3806 79.0436 16.3036 78.5338 15.169C78.0241 14.0179 77.5554 12.9245 77.1279 11.8885C76.651 12.1681 76.166 12.464 75.6727 12.7765C75.1794 13.0724 74.7107 13.3849 74.2668 13.7137C74.2174 13.7466 74.127 13.8124 73.9954 13.9111C73.8639 14.0097 73.7817 14.0591 73.7488 14.0591C73.6501 14.0591 73.535 13.9522 73.4035 13.7384C73.2719 13.5082 73.1568 13.2698 73.0582 13.0231C72.9595 12.7765 72.8855 12.6038 72.8362 12.5052C73.4939 12.2256 74.1517 11.9625 74.8094 11.7159C75.4671 11.4528 76.1166 11.165 76.7579 10.8526C76.5277 10.2606 76.3057 9.66866 76.092 9.0767C75.8782 8.4683 75.6727 7.85989 75.4754 7.25149L77.8925 6.38821C78.0241 7.0295 78.1803 7.67079 78.3612 8.31208C78.542 8.93693 78.7229 9.56178 78.9038 10.1866C79.8246 9.85776 80.7455 9.5289 81.6663 9.20003C82.6036 8.87116 83.5573 8.70673 84.5274 8.70673C85.1358 8.70673 85.6949 8.79716 86.2047 8.97804C86.7309 9.15892 87.1584 9.4549 87.4872 9.86598C87.8161 10.2771 87.9806 10.8197 87.9806 11.4939ZM84.6261 5.05629C84.6261 5.2865 84.4781 5.58248 84.1821 5.94423C83.9026 6.30599 83.5491 6.67597 83.1215 7.05416C82.7104 7.41592 82.2994 7.72012 81.8883 7.96677C81.4936 8.21342 81.1894 8.33675 80.9757 8.33675C80.877 8.33675 80.8277 8.2792 80.8277 8.16409C80.8277 8.14765 80.8688 8.05721 80.951 7.89278C81.0497 7.7119 81.1483 7.5228 81.247 7.32548C81.3456 7.12816 81.4032 7.01306 81.4196 6.98017C81.617 6.58553 81.7814 6.17444 81.9129 5.74691C82.0609 5.30294 82.1843 4.86719 82.2829 4.43966C82.3158 4.30812 82.3487 4.2259 82.3816 4.19301C82.4145 4.14368 82.4967 4.11902 82.6282 4.11902C82.7269 4.11902 82.9242 4.16835 83.2202 4.26701C83.5162 4.34923 83.8039 4.44789 84.0835 4.56299C84.363 4.66165 84.5192 4.74387 84.5521 4.80964C84.585 4.84253 84.6014 4.88364 84.6014 4.93297C84.6179 4.9823 84.6261 5.0234 84.6261 5.05629Z" fill="#333333"/>
<path d="M63.0932 17.9068C63.0932 18.0055 63.0193 18.1206 62.8713 18.2522C62.7397 18.3837 62.5835 18.507 62.4026 18.6221C62.2382 18.7208 62.1066 18.7948 62.008 18.8441C61.1036 19.3374 60.1499 19.7321 59.1468 20.028C58.1602 20.324 57.149 20.472 56.113 20.472C55.3895 20.472 54.6496 20.3734 53.8932 20.176C53.1532 19.9787 52.4544 19.6827 51.7966 19.2881C51.1389 18.9099 50.5798 18.433 50.1194 17.8575C49.6754 17.2656 49.3877 16.5749 49.2561 15.7857L51.7473 14.9224C51.8789 15.7281 52.1995 16.4105 52.7092 16.9696C53.219 17.5287 53.8356 17.9562 54.5591 18.2522C55.2991 18.5481 56.0473 18.6961 56.8036 18.6961C57.2476 18.6961 57.6916 18.6797 58.1356 18.6468C58.596 18.6139 59.04 18.5646 59.4675 18.4988C60.0266 18.4166 60.5774 18.3015 61.12 18.1535C61.6791 18.0055 62.2135 17.8575 62.7233 17.7095C62.7562 17.6931 62.7973 17.6849 62.8466 17.6849C63.011 17.6849 63.0932 17.7589 63.0932 17.9068ZM64.4992 7.42418C64.4992 7.80238 64.3594 8.09014 64.0799 8.28746C63.8168 8.48478 63.5208 8.62455 63.1919 8.70677C62.5013 8.8712 61.8024 9.01097 61.0954 9.12607C60.3883 9.24118 59.6812 9.33984 58.9742 9.42206C59.0728 9.71804 59.2044 10.1045 59.3688 10.5813C59.5497 11.0417 59.7059 11.5021 59.8375 11.9626C59.9854 12.423 60.0594 12.8012 60.0594 13.0972C60.0594 13.6727 59.8703 14.0838 59.4921 14.3304C59.1304 14.5771 58.6864 14.7004 58.1602 14.7004C57.6998 14.7004 57.1818 14.6017 56.6063 14.4044C56.0473 14.2071 55.5786 13.9851 55.2004 13.7384C55.1511 13.7056 55.0689 13.648 54.9538 13.5658C54.8387 13.4836 54.7811 13.4096 54.7811 13.3438C54.7811 13.278 54.814 13.2451 54.8798 13.2451C54.9455 13.2287 54.9949 13.2205 55.0278 13.2205C55.0771 13.2205 55.1346 13.2287 55.2004 13.2451C55.2662 13.2616 55.3237 13.2698 55.3731 13.2698C55.6033 13.3027 55.8417 13.3438 56.0884 13.3931C56.335 13.426 56.5734 13.4425 56.8036 13.4425C57.1654 13.4425 57.3463 13.2698 57.3463 12.9245C57.3463 12.6778 57.297 12.3572 57.1983 11.9626C57.0996 11.5679 56.9845 11.1733 56.853 10.7786C56.7214 10.384 56.6145 10.0633 56.5323 9.8167C56.1212 9.86603 55.7019 9.92358 55.2744 9.98935C54.8633 10.0387 54.444 10.088 54.0165 10.1373C53.5232 10.1867 53.0217 10.2524 52.5119 10.3347C52.0022 10.4169 51.5007 10.458 51.0074 10.458C50.8594 10.458 50.7607 10.4333 50.7114 10.384C50.662 10.3347 50.6045 10.2442 50.5387 10.1127C50.5058 10.014 50.4647 9.89069 50.4154 9.7427C50.3661 9.59471 50.3414 9.47139 50.3414 9.37273C50.3414 9.27407 50.3578 9.21651 50.3907 9.20007C50.4401 9.18363 50.5058 9.17541 50.588 9.17541C50.7196 9.15896 50.8511 9.15896 50.9827 9.17541C51.1142 9.19185 51.2376 9.20007 51.3527 9.20007C51.5829 9.20007 51.8131 9.19185 52.0433 9.17541C52.2899 9.14252 52.5201 9.11785 52.7339 9.10141C53.3094 9.05208 53.8849 9.00275 54.4605 8.95342C55.036 8.88765 55.6033 8.82187 56.1624 8.7561C55.965 8.22991 55.7677 7.71194 55.5704 7.2022C55.3731 6.67601 55.1758 6.14982 54.9784 5.62363C53.8932 5.78807 52.8079 5.94428 51.7226 6.09227C50.6538 6.24026 49.5686 6.3307 48.4668 6.36358H48.3929C48.2777 6.36358 48.138 6.35536 47.9735 6.33892C47.8091 6.32248 47.694 6.27315 47.6282 6.19093C47.6118 6.15804 47.5871 6.0676 47.5542 5.91961C47.5214 5.77162 47.4885 5.61541 47.4556 5.45098C47.4227 5.28654 47.4062 5.17966 47.4062 5.13033C47.4062 4.98234 47.4885 4.90835 47.6529 4.90835C47.8338 4.90835 48.0064 4.91657 48.1709 4.93301C48.3353 4.94945 48.4997 4.95767 48.6642 4.95767C49.6343 4.95767 50.6045 4.92479 51.5746 4.85901C52.5613 4.7768 53.5314 4.67814 54.4851 4.56303C54.2549 3.98751 54.0083 3.412 53.7452 2.83648C53.4985 2.24451 53.2601 1.66077 53.0299 1.08525L56.0144 0.468628C56.2281 1.09348 56.4419 1.72655 56.6557 2.36784C56.8859 2.99269 57.0832 3.62576 57.2476 4.26705C57.6916 4.18484 58.1027 4.10262 58.4809 4.0204C58.8755 3.93818 59.2784 3.85597 59.6895 3.77375C59.6072 3.60932 59.5661 3.4531 59.5661 3.30511C59.5661 2.9598 59.7059 2.6556 59.9854 2.3925C60.265 2.11297 60.5856 1.9732 60.9474 1.9732C61.2927 1.9732 61.638 2.08008 61.9833 2.29384C62.3451 2.50761 62.526 2.81181 62.526 3.20645C62.526 3.56821 62.4191 3.84774 62.2053 4.04507C61.9915 4.24239 61.7284 4.3986 61.416 4.5137C60.8076 4.72747 60.1745 4.8919 59.5168 5.007C58.8755 5.10566 58.2342 5.20433 57.5929 5.30299L58.6042 8.38612C59.1304 8.33679 59.6484 8.2628 60.1581 8.16414C60.6843 8.06548 61.2023 7.95859 61.712 7.84349C61.6627 7.74483 61.638 7.63795 61.638 7.52284C61.638 7.1282 61.7778 6.80756 62.0573 6.56091C62.3369 6.31425 62.6657 6.19093 63.0439 6.19093C63.3728 6.19093 63.6934 6.30603 64.0059 6.53624C64.3347 6.76645 64.4992 7.06243 64.4992 7.42418Z" fill="#333333"/>
<path d="M28.3895 4.9576C28.3895 5.18781 28.2744 5.51668 28.0442 5.94421C27.8304 6.37174 27.5591 6.81571 27.2302 7.27612C26.9014 7.7201 26.5643 8.09829 26.219 8.41072C25.8737 8.72314 25.5859 8.87935 25.3557 8.87935C25.2406 8.87935 25.183 8.8218 25.183 8.7067C25.183 8.65737 25.257 8.49293 25.405 8.2134C25.553 7.91741 25.7257 7.58033 25.923 7.20213C26.1367 6.82393 26.3176 6.47862 26.4656 6.16619C26.6136 5.83733 26.6876 5.62356 26.6876 5.5249C26.6876 5.44268 26.6794 5.38513 26.6629 5.35225C26.6465 5.31936 26.5972 5.30292 26.5149 5.30292C26.2683 5.30292 25.9641 5.36869 25.6023 5.50024C25.2406 5.61534 24.9035 5.73866 24.5911 5.87021C24.2786 5.98532 24.0649 6.04287 23.9498 6.04287C23.9169 6.04287 23.8593 6.03465 23.7771 6.0182C23.6949 5.98532 23.6538 5.93599 23.6538 5.87021C23.6538 5.75511 23.7031 5.54957 23.8018 5.25359C23.9004 4.9576 24.0073 4.67807 24.1224 4.41497C24.254 4.13543 24.3609 3.96278 24.4431 3.89701C24.6075 3.74901 24.8377 3.65858 25.1337 3.62569C25.4297 3.5928 25.6846 3.57636 25.8983 3.57636C26.1943 3.57636 26.5396 3.60925 26.9343 3.67502C27.3289 3.74079 27.666 3.87234 27.9455 4.06966C28.2415 4.26698 28.3895 4.56296 28.3895 4.9576ZM39.5628 13.1464C39.5628 14.4948 39.2997 15.6705 38.7735 16.6735C38.2473 17.6601 37.4991 18.4247 36.529 18.9674C35.5588 19.51 34.3913 19.7813 33.0265 19.7813C31.4151 19.7813 30.116 19.362 29.1294 18.5234C28.1428 17.6848 27.6495 16.4351 27.6495 14.7743C27.6495 14.2481 27.6824 13.7302 27.7482 13.2204C27.814 12.7107 27.8962 12.2009 27.9948 11.6912C27.7811 11.7076 27.5673 11.7241 27.3536 11.7405C27.1398 11.7405 26.9178 11.7405 26.6876 11.7405C26.2272 11.7405 25.701 11.7405 25.109 11.7405C24.5335 11.7405 24.0238 11.7076 23.5798 11.6418C23.4811 11.6254 23.3331 11.5925 23.1358 11.5432C22.9385 11.4774 22.8398 11.3705 22.8398 11.2225C22.8398 11.1074 22.8727 10.9348 22.9385 10.7046C23.0043 10.4579 23.0865 10.203 23.1852 9.93995C23.3003 9.67686 23.4236 9.45487 23.5551 9.274C23.6867 9.07667 23.8182 8.97801 23.9498 8.97801C24.032 8.97801 24.0895 8.99446 24.1224 9.02735C24.1553 9.06023 24.2046 9.10134 24.2704 9.15067C24.3855 9.24933 24.5171 9.33155 24.6651 9.39732C24.8131 9.44665 24.9528 9.5042 25.0844 9.56998C25.4955 9.73441 26.0052 9.86596 26.6136 9.96462C27.2385 10.0468 27.7811 10.1044 28.2415 10.1373C28.521 8.65737 28.8335 7.18568 29.1788 5.72222C29.5405 4.24232 29.8858 2.77063 30.2147 1.30717C30.6422 1.27428 31.0698 1.2414 31.4973 1.20851C31.9413 1.17562 32.3688 1.15918 32.7799 1.15918C32.895 1.15918 32.9936 1.18384 33.0759 1.23317C33.1745 1.26606 33.2239 1.34828 33.2239 1.47983C33.2239 1.57849 33.1581 1.8498 33.0265 2.29377C32.895 2.7213 32.7223 3.23927 32.5086 3.84767C32.3112 4.43964 32.1057 5.04804 31.8919 5.67289C31.6782 6.29774 31.4808 6.85682 31.3 7.35012C31.1355 7.84342 31.0204 8.18051 30.9547 8.36139C30.8396 8.67381 30.7327 8.97801 30.634 9.274C30.5518 9.56998 30.4696 9.87418 30.3874 10.1866C31.1273 10.1044 31.8508 9.96462 32.5579 9.7673C32.6237 9.75085 32.7881 9.70152 33.0512 9.61931C33.3143 9.52065 33.5692 9.43021 33.8158 9.34799C34.0625 9.26577 34.194 9.22467 34.2105 9.22467C34.2433 9.22467 34.2598 9.24111 34.2598 9.274C34.2598 9.47132 34.1858 9.66864 34.0378 9.86596C33.9063 10.0633 33.7747 10.2277 33.6432 10.3593C33.1499 10.7868 32.5826 11.0745 31.9413 11.2225C31.3164 11.3705 30.6916 11.4856 30.0667 11.5679C29.9516 12.0612 29.853 12.5545 29.7707 13.0478C29.6885 13.5411 29.6474 14.0344 29.6474 14.5277C29.6474 15.169 29.7954 15.7691 30.0914 16.3282C30.4038 16.8708 30.8231 17.3148 31.3493 17.6601C31.8755 17.989 32.4675 18.1534 33.1252 18.1534C33.8487 18.1534 34.4571 17.989 34.9504 17.6601C35.4601 17.3148 35.8712 16.8708 36.1837 16.3282C36.4961 15.7856 36.7181 15.1936 36.8496 14.5523C36.9976 13.911 37.0716 13.2862 37.0716 12.6778C37.0716 12.1023 37.0305 11.5514 36.9483 11.0252C36.8661 10.499 36.7181 9.98106 36.5043 9.47132C36.4385 9.274 36.3645 9.0849 36.2823 8.90402C36.2001 8.72314 36.1097 8.54226 36.011 8.36139C35.9452 8.27917 35.8877 8.17229 35.8383 8.04074C35.7726 7.97497 35.7397 7.90097 35.7397 7.81875C35.7397 7.78587 35.7726 7.76943 35.8383 7.76943C36.0028 7.76943 36.2001 7.82698 36.4303 7.94208C36.6605 8.05718 36.8414 8.15584 36.9729 8.23806C37.4827 8.55049 37.9267 8.98624 38.3049 9.54531C38.6995 10.0879 39.0037 10.6799 39.2175 11.3212C39.4477 11.946 39.5628 12.5545 39.5628 13.1464Z" fill="#333333"/>
<path d="M14.4537 16.5749C14.4537 16.6572 14.4209 16.7476 14.3551 16.8463C14.2893 16.9285 14.24 17.0025 14.2071 17.0682C14.0755 17.2491 13.9029 17.4218 13.6891 17.5862C13.4754 17.7506 13.278 17.8986 13.0972 18.0302C12.9163 18.1453 12.719 18.2768 12.5052 18.4248C12.3079 18.5564 12.1023 18.6715 11.8886 18.7701C11.1322 19.099 10.3347 19.3457 9.49606 19.5101C8.65745 19.6745 7.82706 19.7567 7.00489 19.7567C6.26493 19.7567 5.48387 19.6663 4.6617 19.4854C3.85598 19.321 3.09958 19.0497 2.39251 18.6715C1.68545 18.2768 1.10993 17.7671 0.665957 17.1422C0.221986 16.5174 0 15.761 0 14.8731C0 14.1331 0.164434 13.4507 0.493302 12.8258C0.82217 12.1846 1.25792 11.609 1.80055 11.0993C2.34318 10.5731 2.92692 10.1045 3.55177 9.69338C4.19307 9.2823 4.80969 8.92876 5.40166 8.63278C5.18789 8.41902 4.98235 7.93394 4.78503 7.17754C4.58771 6.4047 4.42327 5.56609 4.29173 4.6617C4.20951 4.10263 4.13551 3.52711 4.06974 2.93515C4.00397 2.32674 3.94642 1.78411 3.89709 1.30725C3.84776 0.830392 3.80665 0.485081 3.77376 0.271316L6.8569 0C6.8569 0.345312 6.87334 0.805727 6.90623 1.38125C6.93911 1.94032 6.972 2.5405 7.00489 3.1818C7.05422 3.82309 7.10355 4.44794 7.15288 5.05634C7.20221 5.64831 7.24332 6.15805 7.2762 6.58558C7.32553 6.99667 7.35842 7.25154 7.37486 7.3502C7.37486 7.39953 7.39953 7.48997 7.44886 7.62151C7.49819 7.73662 7.55574 7.79417 7.62151 7.79417C7.75306 7.79417 7.92572 7.75306 8.13948 7.67085C8.35325 7.57219 8.57523 7.4653 8.80544 7.3502C9.03565 7.2351 9.25763 7.12821 9.4714 7.02955C9.68516 6.91445 9.86604 6.82401 10.014 6.75824C10.0962 6.8569 10.236 7.046 10.4333 7.32553C10.6307 7.60507 10.8115 7.88461 10.976 8.16415C11.1568 8.44368 11.2473 8.641 11.2473 8.75611C11.2473 8.92054 11.2062 9.0192 11.124 9.05209C11.0417 9.08498 10.9349 9.10142 10.8033 9.10142C10.5402 9.10142 10.236 9.14253 9.8907 9.22475C9.54539 9.29052 9.23297 9.34807 8.95343 9.3974C8.31214 9.51251 7.60507 9.69338 6.83223 9.94003C6.07584 10.1867 5.3441 10.5156 4.63704 10.9266C3.94642 11.3213 3.3709 11.8146 2.91048 12.4065C2.46651 12.9821 2.24452 13.6645 2.24452 14.4537C2.24452 15.0457 2.39251 15.5472 2.6885 15.9583C3.00092 16.353 3.39556 16.6736 3.87242 16.9203C4.34928 17.1669 4.85902 17.3478 5.40166 17.4629C5.94429 17.5615 6.45403 17.6109 6.93089 17.6109C7.60507 17.6109 8.28747 17.578 8.97809 17.5122C9.68516 17.43 10.3676 17.3313 11.0253 17.2162C11.1733 17.1833 11.4117 17.1258 11.7406 17.0436C12.0695 16.9449 12.4148 16.8463 12.7765 16.7476C13.1547 16.6325 13.4836 16.5421 13.7631 16.4763C14.0427 16.3941 14.2071 16.353 14.2564 16.353C14.388 16.353 14.4537 16.427 14.4537 16.5749Z" fill="#333333"/>
</svg>
