<svg width="100" height="100" viewBox="0 0 100 100" fill="none" xmlns="http://www.w3.org/2000/svg">
<path d="M93.3335 23.146V76.8543C93.3335 79.5002 91.6877 81.8543 89.2085 82.7293L70.8335 91.3543L72.5002 68.7502V31.2502L70.8335 8.646L89.2085 17.271C91.6877 18.146 93.3335 20.5002 93.3335 23.146Z" fill="#29B6F6"/>
<path d="M18.75 70.6167L70.8334 31.2501V11.1521C70.8334 8.6563 67.7459 7.48963 66.0938 9.36047L9.70421 60.9146C7.8292 62.6438 7.93545 65.6376 9.92712 67.2313C9.92712 67.2313 12.6855 69.798 13.6834 70.5105C15.2167 71.6042 17.2313 71.7292 18.75 70.6167Z" fill="#0277BD"/>
<path d="M18.75 29.6696L70.8334 69.0362V89.1341C70.8334 91.63 67.7459 92.7966 66.0938 90.9258L9.70421 39.3716C7.8292 37.6425 7.93545 34.6487 9.92712 33.055C9.92712 33.055 12.6855 30.4883 13.6834 29.7758C15.2167 28.6821 17.2313 28.5571 18.75 29.6696Z" fill="#0288D1"/>
</svg>
