<svg width="30" height="31" viewBox="0 0 30 31" fill="none" xmlns="http://www.w3.org/2000/svg">
<path d="M28.075 8C27.1125 8.4375 26.075 8.725 25 8.8625C26.1 8.2 26.95 7.15 27.35 5.8875C26.3125 6.5125 25.1625 6.95 23.95 7.2C22.9625 6.125 21.575 5.5 20 5.5C17.0625 5.5 14.6625 7.9 14.6625 10.8625C14.6625 11.2875 14.7125 11.7 14.8 12.0875C10.35 11.8625 6.38755 9.725 3.75005 6.4875C3.28755 7.275 3.02505 8.2 3.02505 9.175C3.02505 11.0375 3.96255 12.6875 5.41255 13.625C4.52505 13.625 3.70005 13.375 2.97505 13V13.0375C2.97505 15.6375 4.82505 17.8125 7.27505 18.3C6.48846 18.5153 5.66267 18.5452 4.86255 18.3875C5.20206 19.4531 5.86697 20.3855 6.76382 21.0537C7.66067 21.7218 8.74436 22.0921 9.86255 22.1125C7.96709 23.613 5.61754 24.4241 3.20005 24.4125C2.77505 24.4125 2.35005 24.3875 1.92505 24.3375C4.30005 25.8625 7.12505 26.75 10.15 26.75C20 26.75 25.4125 18.575 25.4125 11.4875C25.4125 11.25 25.4125 11.025 25.4 10.7875C26.45 10.0375 27.35 9.0875 28.075 8Z" fill="#1DA1F2"/>
</svg>
