<svg width="15" height="15" viewBox="0 0 15 15" fill="none" xmlns="http://www.w3.org/2000/svg">
<g clip-path="url(#clip0_35_4321)">
<path d="M12.3359 6.49565C12.319 6.83898 12.0585 7.26288 11.6387 7.67028V13.0389C11.6382 13.1772 11.5838 13.2944 11.4918 13.3859C11.3993 13.4757 11.2794 13.5287 11.1383 13.5297H2.38916C2.24909 13.5287 2.12868 13.4756 2.03622 13.3859C1.9442 13.2944 1.89021 13.1772 1.88974 13.0389V4.45952C1.89021 4.32174 1.9442 4.20408 2.03622 4.11253C2.12868 4.02279 2.24909 3.96971 2.38916 3.9688H7.03591C7.41173 3.47532 7.8498 2.96995 8.34603 2.50671C8.34832 2.50395 8.35017 2.5012 8.35245 2.49847H2.38916C1.83984 2.49801 1.33494 2.71911 0.975587 3.07252C0.614415 3.42593 0.38918 3.92031 0.389649 4.45955V13.039C0.38918 13.5782 0.614415 14.0735 0.975587 14.426C1.33491 14.7793 1.83984 15 2.38916 15H11.1384C11.6886 15 12.1936 14.7793 12.5529 14.4259C12.9132 14.0735 13.1388 13.5781 13.1384 13.0389V5.96098C13.1384 5.96098 13.1347 5.95641 13.1287 5.95182C12.9012 6.14684 12.6362 6.33267 12.3359 6.49565Z" fill="#383838"/>
<path d="M14.9344 0C14.9344 0 14.4748 0.68666 11.4728 1.70241C8.41176 2.73835 6.52759 6.95253 6.52759 6.95253C6.07395 7.81588 4.28087 11.4029 4.28087 11.4029C3.78695 12.3294 4.69193 12.8769 5.22294 11.9202C6.24054 10.0836 6.89743 8.40545 8.44469 8.35784C10.7019 8.28826 12.2455 6.31714 11.7598 6.40869C11.1208 6.68701 9.71178 6.42976 10.5417 6.30158C12.5339 6.14183 13.7616 4.64446 13.3615 4.54286C12.6552 4.81477 11.9965 4.5566 11.8674 4.47876C15.3835 4.0512 14.9344 0 14.9344 0Z" fill="#383838"/>
</g>
<defs>
<clipPath id="clip0_35_4321">
<rect width="15" height="15" fill="white"/>
</clipPath>
</defs>
</svg>
