<svg width="513" height="42" viewBox="0 0 513 42" fill="none" xmlns="http://www.w3.org/2000/svg">
<mask id="mask0_9_342" style="mask-type:alpha" maskUnits="userSpaceOnUse" x="-1" y="0" width="514" height="42">
<path d="M508.115 4.41319C507.955 4.93216 507.915 5.49104 507.995 6.08984C508.075 6.68864 508.115 7.26749 508.115 7.82637C507.955 7.82637 507.656 7.88625 507.217 8.00601C506.818 8.08585 506.438 8.14573 506.079 8.18565C505.919 8.18565 505.74 8.18565 505.54 8.18565C505.341 8.14573 505.181 8.14573 505.061 8.18565L503.923 8.42517H500.57C499.732 8.46509 498.973 8.48505 498.295 8.48505C497.656 8.44513 496.917 8.42517 496.079 8.42517C495.919 8.42517 495.68 8.44513 495.36 8.48505C495.081 8.52497 494.881 8.52497 494.762 8.48505C494.762 8.68465 494.742 8.84433 494.702 8.96409C494.662 9.08385 494.642 9.24354 494.642 9.44314C494.682 9.5629 494.702 9.8623 494.702 10.3413C494.742 10.8204 494.762 11.3593 494.762 11.9581C494.802 12.517 494.822 13.0359 494.822 13.515C494.861 13.994 494.881 14.2934 494.881 14.4132V17.1078C494.881 17.4272 494.881 17.6867 494.881 17.8863C494.921 18.0859 494.981 18.3653 495.061 18.7246H498.534C499.173 18.7246 499.772 18.7445 500.331 18.7845C500.889 18.8244 501.508 18.8443 502.187 18.8443C502.546 18.8443 502.965 18.8643 503.444 18.9042C503.963 18.9441 504.362 18.9242 504.642 18.8443C504.682 19.2036 504.722 19.5829 504.762 19.9821C504.802 20.3813 504.822 20.7405 504.822 21.0599V22.018C504.662 22.018 504.362 22.0379 503.923 22.0779C503.484 22.1178 503.085 22.1577 502.726 22.1976H500.211C499.412 22.3174 498.674 22.3773 497.995 22.3773C497.317 22.3773 496.558 22.3773 495.72 22.3773C495.56 22.3773 495.36 22.3972 495.121 22.4372C494.881 22.4771 494.702 22.4771 494.582 22.4372V24.6527C494.582 25.2116 494.582 25.7904 494.582 26.3892C494.622 26.988 494.702 27.507 494.822 27.9461C494.822 28.6647 494.822 29.3433 494.822 29.9821C494.861 30.5809 494.881 31.1397 494.881 31.6587V32.6767C494.961 32.6368 495.201 32.6567 495.6 32.7366C496.039 32.8164 496.558 32.8962 497.157 32.9761C497.756 33.0559 498.255 33.1158 498.654 33.1557C499.093 33.1956 499.492 33.2755 499.851 33.3952C500.051 33.4751 500.47 33.535 501.109 33.5749C501.788 33.5749 502.227 33.5749 502.426 33.5749C503.424 33.6946 504.402 33.7745 505.36 33.8144C506.319 33.8543 507.297 33.9142 508.295 33.994H510.45C510.61 33.994 510.79 33.9741 510.989 33.9342C511.189 33.8543 511.329 33.8144 511.408 33.8144C511.608 34.533 511.708 35.2316 511.708 35.9102C511.748 36.5889 511.768 37.2675 511.768 37.9461C511.448 38.1457 511.049 38.2455 510.57 38.2455C510.091 38.2455 509.632 38.2655 509.193 38.3054C508.913 38.3054 508.614 38.2855 508.295 38.2455C507.975 38.2056 507.656 38.1857 507.337 38.1857C506.538 38.2256 505.58 38.2256 504.462 38.1857C503.384 38.1457 502.446 38.1657 501.648 38.2455H500.75C500.311 38.1657 499.692 38.1058 498.893 38.0659C498.135 38.026 497.556 38.006 497.157 38.006C496.718 37.9661 496.019 37.9661 495.061 38.006C494.103 38.0859 492.506 38.1457 490.271 38.1857C490.191 38.1857 489.911 38.1857 489.432 38.1857C488.993 38.1857 488.494 38.1857 487.935 38.1857C487.416 38.2256 486.917 38.2455 486.438 38.2455C485.999 38.2855 485.74 38.3054 485.66 38.3054C485.66 37.4671 485.6 36.6487 485.48 35.8503C485.4 35.0519 485.361 34.3134 485.361 33.6348C485.361 33.2356 485.341 32.7765 485.301 32.2575C485.261 31.7386 485.281 31.2994 485.361 30.9401C485.44 29.6627 485.46 28.4052 485.42 27.1677C485.42 25.9302 485.42 24.6727 485.42 23.3952C485.42 23.1158 485.4 22.6168 485.361 21.8982C485.321 21.1797 485.321 20.501 485.361 19.8623L485.241 18.006C485.201 17.7266 485.221 17.2276 485.301 16.509C485.42 15.7505 485.46 15.0918 485.42 14.533C485.38 13.6148 485.341 12.8164 485.301 12.1377C485.261 11.4192 485.221 10.5809 485.181 9.62278C485.141 8.78445 485.141 7.96609 485.181 7.16769C485.261 6.32936 485.301 5.53096 485.301 4.77247C485.301 4.57287 485.301 4.41319 485.301 4.29343C485.341 4.13375 485.46 3.97407 485.66 3.81439L488.714 3.93415C489.313 3.97407 489.991 3.97407 490.75 3.93415C491.548 3.89423 492.247 3.89423 492.846 3.93415C493.005 3.93415 493.145 3.93415 493.265 3.93415C493.424 3.89423 493.584 3.87427 493.744 3.87427C493.863 3.87427 494.123 3.87427 494.522 3.87427C494.921 3.87427 495.341 3.87427 495.78 3.87427C496.219 3.87427 496.618 3.87427 496.977 3.87427C497.337 3.87427 497.556 3.89423 497.636 3.93415C497.716 3.97407 497.955 4.01399 498.354 4.05391C498.754 4.09383 499.053 4.11379 499.253 4.11379C499.372 4.11379 499.552 4.11379 499.792 4.11379C500.031 4.07387 500.271 4.05391 500.51 4.05391C500.79 4.05391 501.049 4.05391 501.289 4.05391C501.528 4.05391 501.708 4.05391 501.828 4.05391C502.267 4.13375 502.666 4.17367 503.025 4.17367C503.424 4.13375 503.844 4.13375 504.283 4.17367C504.323 4.17367 504.522 4.19363 504.881 4.23356C505.281 4.23356 505.72 4.25351 506.199 4.29343C506.678 4.33335 507.097 4.37327 507.456 4.41319C507.855 4.41319 508.075 4.41319 508.115 4.41319Z" fill="#383838" stroke="white" stroke-width="0.5"/>
<path d="M453.841 3.69465C454.32 3.73457 454.979 3.73457 455.817 3.69465C456.695 3.65473 457.514 3.65473 458.272 3.69465C459.03 3.69465 459.569 3.67469 459.889 3.63477C460.248 3.59485 460.547 3.57489 460.787 3.57489C461.066 3.57489 461.366 3.63477 461.685 3.75453V7.64675C461.685 8.76451 461.665 9.70263 461.625 10.4611C461.585 11.1797 461.545 11.7984 461.506 12.3174C461.466 12.7964 461.426 13.1956 461.386 13.515C461.346 13.8344 461.326 14.1338 461.326 14.4132V18.1857C461.326 18.5449 461.346 18.9442 461.386 19.3833C461.426 19.8224 461.426 20.1617 461.386 20.4012C461.266 20.7206 461.246 21.0799 461.326 21.4791C461.366 21.6787 461.386 21.9581 461.386 22.3174C461.386 22.6368 461.386 22.9761 461.386 23.3354C461.386 23.6946 461.386 24.034 461.386 24.3533C461.386 24.6727 461.406 24.9122 461.446 25.0719C461.446 25.4711 461.426 26.0899 461.386 26.9282C461.386 27.7665 461.366 28.6447 461.326 29.5629C461.326 30.4412 461.306 31.2994 461.266 32.1378C461.266 32.9761 461.286 33.5948 461.326 33.994H463.961C464.36 34.1537 464.719 34.2136 465.038 34.1737C465.358 34.0938 465.697 34.1338 466.056 34.2935H469.709C470.587 34.4931 471.506 34.6128 472.464 34.6527C473.462 34.6927 474.36 34.6727 475.158 34.5929H477.553C477.593 34.6727 477.653 34.7525 477.733 34.8324C477.773 34.9122 477.813 34.9921 477.853 35.0719C477.893 35.1517 477.913 35.2316 477.913 35.3114C477.873 35.5509 477.853 35.8703 477.853 36.2695C477.853 36.6288 477.853 36.9881 477.853 37.3473C477.853 37.7066 477.833 38.006 477.793 38.2455C477.753 38.525 477.713 38.6647 477.673 38.6647H474.799C473.801 38.7046 472.943 38.7246 472.224 38.7246C471.506 38.7645 470.787 38.7845 470.068 38.7845H466.955C466.316 38.6248 465.737 38.5449 465.218 38.5449C464.699 38.5449 464.16 38.5449 463.601 38.5449H462.943C462.623 38.5449 462.284 38.525 461.925 38.4851C461.605 38.4851 461.266 38.505 460.907 38.5449C460.348 38.5449 459.649 38.5849 458.811 38.6647C457.973 38.7445 457.234 38.7845 456.595 38.7845H454.2C454.001 38.2256 453.881 37.7066 453.841 37.2276C453.841 36.7885 453.841 36.3893 453.841 36.03V33.036C454.04 32.7166 454.08 32.3972 453.961 32.0779C453.881 31.7186 453.841 31.3394 453.841 30.9402L453.961 27.2276C453.881 26.4292 453.861 25.6308 453.901 24.8324C453.941 23.994 453.961 23.1757 453.961 22.3773C453.921 22.2176 453.901 21.9781 453.901 21.6587C453.901 21.3394 453.901 21 453.901 20.6408C453.901 20.2815 453.901 19.9422 453.901 19.6228C453.901 19.2635 453.881 18.9841 453.841 18.7845C453.761 18.3853 453.781 18.026 453.901 17.7066C453.941 17.4671 453.941 17.1278 453.901 16.6887C453.861 16.2495 453.841 15.8503 453.841 15.4911V3.69465Z" fill="#383838" stroke="white" stroke-width="0.5"/>
<path d="M431.073 9.02395C431.393 9.34331 431.712 9.68263 432.031 10.0419C432.391 10.3613 432.73 10.7206 433.049 11.1198C433.209 11.4391 433.369 11.7186 433.528 11.9581C433.728 12.1577 433.948 12.4172 434.187 12.7365L435.385 13.994L436.043 13.3952L436.343 12.9162C436.542 12.6367 436.842 12.2375 437.241 11.7186C437.68 11.1597 438.179 10.5409 438.738 9.86227L440.654 7.46707C440.614 7.50699 440.634 7.44711 440.714 7.28743C440.834 7.12775 440.954 6.96806 441.073 6.80838C441.193 6.60878 441.293 6.4491 441.373 6.32934C441.492 6.16966 441.532 6.10978 441.492 6.1497C441.732 5.91018 441.952 5.59082 442.151 5.19162C442.391 4.79242 442.67 4.41317 442.989 4.05389C443.189 3.77445 443.369 3.49501 443.528 3.21557C443.688 2.89621 443.868 2.59681 444.067 2.31737L444.546 1.35928C444.746 1.15968 444.866 1.05988 444.906 1.05988C444.946 1.01996 445.045 1 445.205 1C445.764 1.3992 446.223 1.81836 446.582 2.25748C446.981 2.65669 447.441 3.09581 447.96 3.57485L448.259 3.93413C448.419 4.13373 448.558 4.31337 448.678 4.47305C448.798 4.63273 448.898 4.81237 448.977 5.01197C448.938 5.09182 448.838 5.23154 448.678 5.43114C448.558 5.63074 448.419 5.83034 448.259 6.02994L445.983 9.38323C445.584 10.0619 445.145 10.6806 444.666 11.2395C444.227 11.7585 443.768 12.2575 443.289 12.7365C442.89 13.1357 442.51 13.5549 442.151 13.994C441.832 14.4331 441.512 14.8124 441.193 15.1317C440.714 15.8104 440.215 16.4291 439.696 16.988C439.217 17.507 438.798 18.006 438.439 18.485L438.199 18.7844C438.159 19.3433 438.139 19.9421 438.139 20.5808C438.139 21.1796 438.139 21.7585 438.139 22.3174C438.179 22.8363 438.219 23.3154 438.259 23.7545C438.299 24.1537 438.319 24.4731 438.319 24.7126C438.319 24.7924 438.299 24.8922 438.259 25.012C438.259 25.1317 438.259 25.2315 438.259 25.3114V25.6707C438.339 26.7485 438.379 27.6667 438.379 28.4251C438.419 29.1437 438.439 29.7824 438.439 30.3413C438.439 31.2196 438.419 32.018 438.379 32.7365C438.379 33.4551 438.439 34.2535 438.558 35.1317C438.558 35.6906 438.558 36.3892 438.558 37.2275C438.598 38.0659 438.658 38.7844 438.738 39.3832V40.4012C438.698 40.5609 438.478 40.6407 438.079 40.6407C437.72 40.6806 437.5 40.7405 437.421 40.8204C437.061 40.9401 436.542 41 435.864 41C435.185 41 434.586 40.9601 434.067 40.8802C433.987 40.6806 433.908 40.5409 433.828 40.4611C433.748 40.4212 433.668 40.3214 433.588 40.1617V38.7246C433.588 38.4052 433.588 38.0459 433.588 37.6467C433.628 37.2874 433.628 36.7884 433.588 36.1497C433.588 36.0299 433.568 35.8703 433.528 35.6707C433.528 35.4711 433.508 35.2515 433.468 35.012C433.468 34.7725 433.468 34.5529 433.468 34.3533C433.468 34.1138 433.468 33.9541 433.468 33.8743C433.548 32.9561 433.608 32.1577 433.648 31.479C433.728 30.8004 433.748 30.0818 433.708 29.3234C433.668 28.5649 433.688 27.9261 433.768 27.4072C433.848 26.8483 433.908 26.4691 433.948 26.2695V24.2934C433.908 23.8543 433.868 23.3952 433.828 22.9162C433.788 22.3972 433.788 22.1178 433.828 22.0778C433.868 21.998 433.868 21.9182 433.828 21.8383C433.828 21.7186 433.828 21.6188 433.828 21.5389C433.828 21.3393 433.828 21.0798 433.828 20.7605C433.828 20.4411 433.848 20.2016 433.888 20.0419C433.888 19.7226 433.828 19.483 433.708 19.3234C433.588 19.1637 433.429 18.984 433.229 18.7844C433.069 18.5848 432.89 18.4052 432.69 18.2455C432.53 18.0858 432.411 17.9261 432.331 17.7665L431.433 16.8683C431.113 16.6687 430.714 16.2096 430.235 15.491C429.756 14.7325 429.237 14.0938 428.678 13.5749C428.558 13.4551 428.339 13.2156 428.019 12.8563C427.7 12.497 427.361 12.1178 427.001 11.7186C426.682 11.2794 426.363 10.9002 426.043 10.5808C425.764 10.2216 425.604 10.002 425.564 9.92215C425.484 9.88223 425.385 9.78243 425.265 9.62275C425.185 9.46307 425.085 9.30339 424.966 9.14371C424.846 8.94411 424.726 8.76447 424.606 8.60479C424.526 8.44511 424.486 8.34531 424.486 8.30539C424.287 8.02595 424.087 7.80639 423.888 7.64671C423.728 7.44711 423.568 7.20758 423.409 6.92814L421.912 4.65269V4.35329C422.271 4.15369 422.55 3.91417 422.75 3.63473C422.989 3.35529 423.269 3.11577 423.588 2.91617C423.788 2.75649 424.007 2.55689 424.247 2.31737C424.526 2.03792 424.746 1.81836 424.906 1.65868H425.684C425.844 1.97804 426.043 2.29741 426.283 2.61677C426.562 2.93613 426.782 3.25549 426.942 3.57485C426.981 3.69461 427.061 3.81437 427.181 3.93413C427.341 4.05389 427.421 4.15369 427.421 4.23353C427.5 4.27345 427.66 4.45309 427.9 4.77245C428.179 5.0519 428.359 5.27146 428.439 5.43114L429.337 6.68862C429.536 6.92814 429.676 7.12775 429.756 7.28743C429.876 7.40719 430.035 7.62675 430.235 7.94611C430.315 8.02595 430.435 8.20559 430.594 8.48503C430.794 8.76447 430.954 8.94411 431.073 9.02395Z" fill="#383838" stroke="white" stroke-width="0.5"/>
<path d="M409.481 38.6048C409.401 38.6048 409.261 38.6248 409.061 38.6647C408.862 38.7046 408.662 38.7246 408.463 38.7246C408.263 38.7645 408.083 38.7845 407.924 38.7845C407.804 38.8244 407.764 38.8443 407.804 38.8443H404.87C404.231 38.7645 403.692 38.7046 403.253 38.6647C402.854 38.6647 402.495 38.6847 402.175 38.7246C402.095 38.7246 402.015 38.6847 401.936 38.6048C401.856 38.5649 401.796 38.525 401.756 38.4851C401.716 38.1258 401.696 37.5869 401.696 36.8683C401.736 36.1497 401.756 35.5909 401.756 35.1917V34.3533C401.836 33.6747 401.856 33.0759 401.816 32.5569C401.776 31.998 401.756 31.3793 401.756 30.7006V29.3833C401.956 28.505 401.996 27.5869 401.876 26.6288C401.796 25.6707 401.756 24.7925 401.756 23.994V8.72459C401.756 8.32539 401.656 8.12579 401.457 8.12579C400.898 8.08587 400.459 8.06591 400.139 8.06591C399.82 8.06591 399.381 8.08587 398.822 8.12579C398.582 8.12579 398.163 8.06591 397.564 7.94615C397.006 7.82639 396.626 7.78647 396.427 7.82639C396.227 7.90623 395.808 7.90623 395.169 7.82639C394.57 7.74655 394.171 7.70663 393.972 7.70663C393.772 7.70663 393.592 7.70663 393.433 7.70663C393.273 7.66671 393.113 7.58687 392.954 7.46711V3.75453C393.113 3.67469 393.353 3.63477 393.672 3.63477C393.992 3.63477 394.311 3.63477 394.63 3.63477C395.029 3.63477 395.389 3.63477 395.708 3.63477C396.027 3.63477 396.327 3.61481 396.606 3.57489C396.686 3.57489 396.966 3.59485 397.445 3.63477C397.924 3.67469 398.323 3.71461 398.642 3.75453C398.882 3.67469 399.121 3.63477 399.361 3.63477C399.96 3.59485 400.518 3.59485 401.037 3.63477C401.397 3.67469 401.656 3.67469 401.816 3.63477C401.976 3.59485 402.215 3.57489 402.534 3.57489H403.493L405.109 3.69465C405.509 3.69465 405.908 3.69465 406.307 3.69465C406.706 3.65473 407.105 3.65473 407.505 3.69465C408.423 3.77449 409.301 3.81441 410.139 3.81441C411.017 3.77449 411.736 3.71461 412.295 3.63477C412.574 3.63477 413.073 3.67469 413.792 3.75453C414.511 3.83437 415.209 3.89425 415.888 3.93417C416.327 3.97409 416.686 3.97409 416.966 3.93417C417.245 3.89425 417.485 3.89425 417.684 3.93417V6.68866C417.684 6.84834 417.704 6.94814 417.744 6.98807C417.784 7.02799 417.764 7.20762 417.684 7.52699C417.644 7.68667 417.485 7.78647 417.205 7.82639C416.926 7.82639 416.706 7.82639 416.546 7.82639C415.509 7.98607 414.55 8.04595 413.672 8.00603C412.834 7.96611 412.016 7.94615 411.217 7.94615C410.898 7.94615 410.638 7.94615 410.439 7.94615C410.279 7.94615 410.079 7.96611 409.84 8.00603V9.38327C409.84 9.70264 409.82 10.1817 409.78 10.8204C409.78 11.4591 409.78 11.9581 409.78 12.3174C409.78 12.4771 409.78 12.5968 409.78 12.6767C409.78 12.7565 409.76 12.8763 409.72 13.036C409.72 13.1557 409.7 13.3553 409.66 13.6348C409.62 13.8743 409.54 14.2336 409.421 14.7126C409.421 15.3913 409.421 15.9701 409.421 16.4491C409.421 16.9282 409.421 17.3673 409.421 17.7665C409.461 18.1657 409.481 18.5649 409.481 18.9641C409.481 19.3234 409.481 19.7625 409.481 20.2815V20.8803C409.321 21.5589 409.281 22.2376 409.361 22.9162C409.441 23.5948 409.481 24.2735 409.481 24.9521V38.6048Z" fill="#383838" stroke="white" stroke-width="0.5"/>
<path d="M371.594 2.43709C371.993 2.2774 372.592 2.23748 373.39 2.31733C374.188 2.39717 374.827 2.43709 375.306 2.43709C375.586 2.43709 375.945 2.45704 376.384 2.49696C376.863 2.49696 377.362 2.53689 377.881 2.61673C378.4 2.65665 378.879 2.69657 379.318 2.73649C379.797 2.73649 380.156 2.73649 380.396 2.73649C380.755 2.73649 381.254 2.75645 381.893 2.79637C382.532 2.79637 383.011 2.87621 383.33 3.03589C383.49 3.11573 383.829 3.19557 384.348 3.27541C384.907 3.31533 385.246 3.35525 385.366 3.39517C385.566 3.39517 385.685 3.41513 385.725 3.45505C385.765 3.45505 385.865 3.53489 386.025 3.69457C386.025 4.09377 385.965 4.47301 385.845 4.8323C385.765 5.15165 385.725 5.47102 385.725 5.79038C385.446 5.79038 385.146 5.81034 384.827 5.85026C384.508 5.89018 384.228 5.9301 383.989 5.97002C383.59 6.04986 383.27 6.08978 383.031 6.08978C382.831 6.04986 382.472 6.0299 381.953 6.0299C381.474 6.0299 380.955 6.04986 380.396 6.08978C379.877 6.1297 379.398 6.16962 378.959 6.20954C378.52 6.24946 378.14 6.28938 377.821 6.3293C377.542 6.36922 377.382 6.38918 377.342 6.38918C376.903 6.46902 376.324 6.58878 375.606 6.74846C374.887 6.90814 374.148 7.10775 373.39 7.34727C372.631 7.54687 371.933 7.78639 371.294 8.06583C370.655 8.34527 370.216 8.62471 369.977 8.90415C369.618 9.42311 369.258 9.84228 368.899 10.1616C368.58 10.4411 368.34 10.8602 368.18 11.4191C368.101 11.5788 368.061 11.8582 368.061 12.2574C368.061 12.6167 368.061 13.0159 368.061 13.455C368.101 13.8542 368.16 14.2535 368.24 14.6527C368.32 15.0519 368.42 15.3513 368.54 15.5509C368.859 15.9101 369.118 16.2694 369.318 16.6287C369.518 16.988 369.677 17.2075 369.797 17.2874C370.077 17.4471 370.416 17.6467 370.815 17.8862C371.254 18.1257 371.693 18.3453 372.132 18.5449C372.212 18.5848 372.452 18.6447 372.851 18.7245C373.29 18.7644 373.789 18.8642 374.348 19.0239C374.667 19.1038 374.867 19.1636 374.947 19.2036C375.027 19.2435 375.206 19.3034 375.486 19.3832C375.685 19.463 375.825 19.5229 375.905 19.5628C375.985 19.6028 376.124 19.6626 376.324 19.7425C376.564 19.8223 376.823 19.9022 377.103 19.982C377.422 20.0219 377.602 20.0419 377.641 20.0419C377.961 20.0419 378.28 20.1018 378.6 20.2215C378.959 20.3014 379.298 20.3413 379.618 20.3413C380.176 20.501 380.695 20.6207 381.174 20.7006C381.653 20.7804 382.152 21 382.671 21.3592C382.951 21.4391 383.25 21.5389 383.57 21.6586C383.889 21.7784 384.148 21.8982 384.348 22.0179C384.468 22.0978 384.687 22.2375 385.007 22.4371C385.366 22.5968 385.725 22.7964 386.085 23.0359C386.444 23.2754 386.783 23.5349 387.103 23.8143C387.422 24.0938 387.621 24.3333 387.701 24.5329C388.101 25.1716 388.38 25.8303 388.54 26.5089C388.699 27.1477 388.779 27.8063 388.779 28.485C388.779 28.6846 388.739 28.9441 388.659 29.2634C388.62 29.5828 388.58 29.8423 388.54 30.0419L388.24 31.7185C388.16 31.9181 387.981 32.2774 387.701 32.7964C387.422 33.3153 387.242 33.6147 387.162 33.6946C387.122 33.7744 387.023 33.9141 386.863 34.1137C386.703 34.2734 386.524 34.453 386.324 34.6526C386.164 34.8123 386.005 34.972 385.845 35.1317C385.685 35.2515 385.586 35.3313 385.546 35.3712C385.266 35.6107 384.827 35.9301 384.228 36.3293C383.669 36.7285 383.051 37.1277 382.372 37.5269C381.733 37.966 381.095 38.3253 380.456 38.6047C379.857 38.9241 379.358 39.0838 378.959 39.0838C378.879 39.1636 378.779 39.1836 378.659 39.1437C378.54 39.1437 378.42 39.1836 378.3 39.2634C377.861 39.2634 377.442 39.2834 377.043 39.3233C376.643 39.4031 376.105 39.4231 375.426 39.3832C374.827 39.3433 374.248 39.3433 373.689 39.3832C373.17 39.463 372.592 39.483 371.953 39.4431C371.633 39.4431 371.154 39.4431 370.516 39.4431C369.877 39.4431 369.198 39.4231 368.48 39.3832C367.761 39.3832 367.063 39.3632 366.384 39.3233C365.745 39.2834 365.226 39.2035 364.827 39.0838C364.787 39.0838 364.647 39.0638 364.408 39.0239C364.208 38.984 363.969 38.9441 363.689 38.9041C363.45 38.9041 363.21 38.8842 362.971 38.8443C362.731 38.8043 362.552 38.7844 362.432 38.7844C362.113 38.7445 361.633 38.6846 360.995 38.6047C360.396 38.5249 359.977 38.4451 359.737 38.3652C359.578 38.2854 359.398 38.1656 359.198 38.0059C359.039 37.8862 358.959 37.7265 358.959 37.5269C358.879 37.3672 358.759 37.0678 358.6 36.6287C358.48 36.1497 358.36 35.6706 358.24 35.1916C358.12 34.6726 358.021 34.2135 357.941 33.8143C357.901 33.4151 357.921 33.2155 358.001 33.2155C358.679 33.3752 359.358 33.5349 360.037 33.6946C360.755 33.8143 361.554 33.9541 362.432 34.1137C363.111 34.1137 363.789 34.1936 364.468 34.3532C365.146 34.473 365.925 34.5329 366.803 34.5329C367.122 34.5329 367.462 34.5129 367.821 34.473C368.18 34.3932 368.639 34.3133 369.198 34.2335C369.318 34.1936 369.438 34.1736 369.558 34.1736C369.677 34.1736 369.777 34.1537 369.857 34.1137C370.456 34.1137 371.154 33.9341 371.953 33.5748C372.751 33.1756 373.37 32.8762 373.809 32.6766C373.849 32.6766 373.949 32.6167 374.109 32.497C374.308 32.3772 374.508 32.2375 374.707 32.0778C374.907 31.8782 375.087 31.6986 375.246 31.5389C375.446 31.3792 375.566 31.2594 375.606 31.1796L376.743 29.4431C376.823 29.2435 376.923 29.0239 377.043 28.7844C377.202 28.505 377.322 28.2654 377.402 28.0658C377.641 27.467 377.641 26.7085 377.402 25.7904C377.162 25.5908 376.963 25.3712 376.803 25.1317C376.683 24.8922 376.504 24.6327 376.264 24.3533C376.065 24.0339 375.825 23.7944 375.546 23.6347C375.266 23.4351 374.967 23.2554 374.647 23.0958C374.089 22.8962 373.57 22.7165 373.091 22.5568C372.612 22.3572 372.212 22.2574 371.893 22.2574C371.334 22.0978 370.875 21.998 370.516 21.958C370.196 21.9181 369.877 21.8183 369.558 21.6586C369.039 21.499 368.58 21.3992 368.18 21.3592C367.821 21.3193 367.482 21.1996 367.162 21C366.643 21 366.184 20.9401 365.785 20.8203C365.426 20.6606 364.967 20.501 364.408 20.3413C364.208 20.2215 363.989 20.1018 363.749 19.982C363.51 19.8622 363.33 19.7624 363.21 19.6826C362.651 19.2435 362.172 18.8842 361.773 18.6047C361.374 18.3253 360.955 17.9061 360.516 17.3473C360.116 16.8283 359.837 16.489 359.677 16.3293C359.518 16.1297 359.318 15.7904 359.079 15.3113C358.999 15.1117 358.919 14.8523 358.839 14.5329C358.759 14.1736 358.699 13.8343 358.659 13.5149C358.62 13.1556 358.58 12.8363 358.54 12.5568C358.54 12.2375 358.54 12.0179 358.54 11.8982C358.54 11.3792 358.56 10.96 358.6 10.6407C358.639 10.3213 358.679 9.98199 358.719 9.62271C358.759 9.30335 358.859 8.96403 359.019 8.60475C359.178 8.24547 359.358 7.94607 359.558 7.70655C359.997 6.90814 360.496 6.34926 361.055 6.0299C361.614 5.67062 362.252 5.2315 362.971 4.71253C363.13 4.59277 363.37 4.45305 363.689 4.29337C364.049 4.09377 364.408 3.91413 364.767 3.75445C365.166 3.59477 365.546 3.45505 365.905 3.33529C366.264 3.21553 366.564 3.11573 366.803 3.03589C367.122 3.03589 367.402 2.99597 367.641 2.91613C367.881 2.79637 368.18 2.73649 368.54 2.73649C368.859 2.73649 369.099 2.71653 369.258 2.67661C369.458 2.63669 369.717 2.61673 370.037 2.61673C370.236 2.61673 370.436 2.63669 370.635 2.67661C370.875 2.67661 371.194 2.59677 371.594 2.43709Z" fill="#383838" stroke="white" stroke-width="0.5"/>
<path d="M350.671 4.41319C350.511 4.93216 350.471 5.49104 350.551 6.08984C350.631 6.68864 350.671 7.26749 350.671 7.82637C350.511 7.82637 350.212 7.88625 349.773 8.00601C349.374 8.08585 348.994 8.14573 348.635 8.18565C348.475 8.18565 348.296 8.18565 348.096 8.18565C347.897 8.14573 347.737 8.14573 347.617 8.18565L346.479 8.42517H343.126C342.288 8.46509 341.529 8.48505 340.851 8.48505C340.212 8.44513 339.473 8.42517 338.635 8.42517C338.475 8.42517 338.236 8.44513 337.917 8.48505C337.637 8.52497 337.438 8.52497 337.318 8.48505C337.318 8.68465 337.298 8.84433 337.258 8.96409C337.218 9.08385 337.198 9.24354 337.198 9.44314C337.238 9.5629 337.258 9.8623 337.258 10.3413C337.298 10.8204 337.318 11.3593 337.318 11.9581C337.358 12.517 337.378 13.0359 337.378 13.515C337.418 13.994 337.438 14.2934 337.438 14.4132V17.1078C337.438 17.4272 337.438 17.6867 337.438 17.8863C337.477 18.0859 337.537 18.3653 337.617 18.7246H341.09C341.729 18.7246 342.328 18.7445 342.887 18.7845C343.446 18.8244 344.064 18.8443 344.743 18.8443C345.102 18.8443 345.521 18.8643 346 18.9042C346.519 18.9441 346.919 18.9242 347.198 18.8443C347.238 19.2036 347.278 19.5829 347.318 19.9821C347.358 20.3813 347.378 20.7405 347.378 21.0599V22.018C347.218 22.018 346.919 22.0379 346.479 22.0779C346.04 22.1178 345.641 22.1577 345.282 22.1976H342.767C341.969 22.3174 341.23 22.3773 340.551 22.3773C339.873 22.3773 339.114 22.3773 338.276 22.3773C338.116 22.3773 337.917 22.3972 337.677 22.4372C337.438 22.4771 337.258 22.4771 337.138 22.4372V24.6527C337.138 25.2116 337.138 25.7904 337.138 26.3892C337.178 26.988 337.258 27.507 337.378 27.9461C337.378 28.6647 337.378 29.3433 337.378 29.9821C337.418 30.5809 337.438 31.1397 337.438 31.6587V32.6767C337.517 32.6368 337.757 32.6567 338.156 32.7366C338.595 32.8164 339.114 32.8962 339.713 32.9761C340.312 33.0559 340.811 33.1158 341.21 33.1557C341.649 33.1956 342.048 33.2755 342.408 33.3952C342.607 33.4751 343.026 33.535 343.665 33.5749C344.344 33.5749 344.783 33.5749 344.982 33.5749C345.98 33.6946 346.959 33.7745 347.917 33.8144C348.875 33.8543 349.853 33.9142 350.851 33.994H353.006C353.166 33.994 353.346 33.9741 353.545 33.9342C353.745 33.8543 353.885 33.8144 353.965 33.8144C354.164 34.533 354.264 35.2316 354.264 35.9102C354.304 36.5889 354.324 37.2675 354.324 37.9461C354.004 38.1457 353.605 38.2455 353.126 38.2455C352.647 38.2455 352.188 38.2655 351.749 38.3054C351.47 38.3054 351.17 38.2855 350.851 38.2455C350.531 38.2056 350.212 38.1857 349.893 38.1857C349.094 38.2256 348.136 38.2256 347.018 38.1857C345.941 38.1457 345.002 38.1657 344.204 38.2455H343.306C342.867 38.1657 342.248 38.1058 341.45 38.0659C340.691 38.026 340.112 38.006 339.713 38.006C339.274 37.9661 338.575 37.9661 337.617 38.006C336.659 38.0859 335.062 38.1457 332.827 38.1857C332.747 38.1857 332.468 38.1857 331.988 38.1857C331.549 38.1857 331.05 38.1857 330.491 38.1857C329.973 38.2256 329.474 38.2455 328.994 38.2455C328.555 38.2855 328.296 38.3054 328.216 38.3054C328.216 37.4671 328.156 36.6487 328.036 35.8503C327.957 35.0519 327.917 34.3134 327.917 33.6348C327.917 33.2356 327.897 32.7765 327.857 32.2575C327.817 31.7386 327.837 31.2994 327.917 30.9401C327.996 29.6627 328.016 28.4052 327.976 27.1677C327.976 25.9302 327.976 24.6727 327.976 23.3952C327.976 23.1158 327.957 22.6168 327.917 21.8982C327.877 21.1797 327.877 20.501 327.917 19.8623L327.797 18.006C327.757 17.7266 327.777 17.2276 327.857 16.509C327.976 15.7505 328.016 15.0918 327.976 14.533C327.937 13.6148 327.897 12.8164 327.857 12.1377C327.817 11.4192 327.777 10.5809 327.737 9.62278C327.697 8.78445 327.697 7.96609 327.737 7.16769C327.817 6.32936 327.857 5.53096 327.857 4.77247C327.857 4.57287 327.857 4.41319 327.857 4.29343C327.897 4.13375 328.016 3.97407 328.216 3.81439L331.27 3.93415C331.869 3.97407 332.547 3.97407 333.306 3.93415C334.104 3.89423 334.803 3.89423 335.402 3.93415C335.561 3.93415 335.701 3.93415 335.821 3.93415C335.98 3.89423 336.14 3.87427 336.3 3.87427C336.42 3.87427 336.679 3.87427 337.078 3.87427C337.477 3.87427 337.897 3.87427 338.336 3.87427C338.775 3.87427 339.174 3.87427 339.533 3.87427C339.893 3.87427 340.112 3.89423 340.192 3.93415C340.272 3.97407 340.511 4.01399 340.911 4.05391C341.31 4.09383 341.609 4.11379 341.809 4.11379C341.929 4.11379 342.108 4.11379 342.348 4.11379C342.587 4.07387 342.827 4.05391 343.066 4.05391C343.346 4.05391 343.605 4.05391 343.845 4.05391C344.084 4.05391 344.264 4.05391 344.384 4.05391C344.823 4.13375 345.222 4.17367 345.581 4.17367C345.98 4.13375 346.4 4.13375 346.839 4.17367C346.879 4.17367 347.078 4.19363 347.438 4.23356C347.837 4.23356 348.276 4.25351 348.755 4.29343C349.234 4.33335 349.653 4.37327 350.012 4.41319C350.412 4.41319 350.631 4.41319 350.671 4.41319Z" fill="#383838" stroke="white" stroke-width="0.5"/>
<path d="M310.924 19.1438C310.765 19.1837 310.545 19.2036 310.266 19.2036C310.026 19.2036 309.827 19.2236 309.667 19.2635L308.769 19.3234C308.689 19.3234 308.589 19.3434 308.469 19.3833C308.389 19.3833 308.31 19.3833 308.23 19.3833C308.31 19.9422 308.31 20.4412 308.23 20.8803C308.15 21.3194 308.13 22.018 308.17 22.9761C308.21 23.9342 308.17 24.7925 308.05 25.551C307.93 26.3094 307.89 27.1478 307.93 28.0659C307.97 28.6248 307.97 29.2436 307.93 29.9222C307.89 30.6009 307.831 31.0799 307.751 31.3593L307.571 35.6108V37.6468C307.132 37.7266 306.813 37.7665 306.613 37.7665C306.413 37.7665 306.214 37.7466 306.014 37.7066C305.815 37.7066 305.575 37.7066 305.296 37.7066C305.056 37.7066 304.677 37.7466 304.158 37.8264C303.599 37.9462 303.24 38.006 303.08 38.006C302.96 38.006 302.801 38.006 302.601 38.006C302.601 37.6468 302.581 37.4272 302.541 37.3474C302.541 37.2675 302.561 37.028 302.601 36.6288C302.561 36.3094 302.521 35.8703 302.481 35.3114C302.441 34.7126 302.401 34.0939 302.362 33.4551C302.322 32.7765 302.302 32.1178 302.302 31.4791C302.302 30.8005 302.322 30.2216 302.362 29.7426C302.362 29.4232 302.342 29.044 302.302 28.6048C302.302 28.1657 302.282 27.7266 302.242 27.2875C302.202 27.1278 302.202 26.9282 302.242 26.6887C302.242 26.6488 302.242 26.3294 302.242 25.7306C302.242 25.0919 302.242 24.4132 302.242 23.6947C302.242 22.9761 302.242 22.3174 302.242 21.7186C302.242 21.1198 302.242 20.7805 302.242 20.7007C302.242 20.5809 302.222 20.3214 302.182 19.9222C302.142 19.4831 302.102 19.024 302.062 18.545C302.062 18.0659 302.062 17.6268 302.062 17.2276C302.062 16.8284 302.062 16.5689 302.062 16.4492C302.102 15.8504 302.122 15.3114 302.122 14.8324C302.162 14.3533 302.162 13.8943 302.122 13.4551C302.122 13.016 302.102 12.5569 302.062 12.0779C302.022 11.5989 301.942 11.02 301.823 10.3414C301.783 10.1817 301.763 9.88229 301.763 9.44317C301.803 8.96413 301.823 8.46512 301.823 7.94616C301.862 7.38728 301.882 6.88828 301.882 6.44916C301.922 5.97011 301.942 5.65075 301.942 5.49107C301.942 5.29147 301.962 5.11183 302.002 4.95215C302.042 4.75255 302.022 4.51303 301.942 4.23359L302.182 3.81442H307.571C309.328 3.81442 310.525 3.81442 311.164 3.81442C311.843 3.7745 312.401 3.7745 312.841 3.81442C313.998 3.89426 315.016 3.93418 315.894 3.93418C316.813 3.93418 317.691 3.89426 318.529 3.81442H321.823C322.022 4.13379 322.062 4.47311 321.942 4.83239C321.862 5.15175 321.823 5.47111 321.823 5.79047V7.8264H321.463C321.064 7.78648 320.665 7.84636 320.266 8.00604C319.866 8.1258 319.467 8.14576 319.068 8.06592C318.629 7.98608 318.05 7.98608 317.332 8.06592C316.613 8.14576 316.034 8.18568 315.595 8.18568L311.044 8.4252C310.645 8.4252 310.246 8.4252 309.847 8.4252C309.447 8.38528 309.028 8.40524 308.589 8.48508C308.589 8.84437 308.589 9.12381 308.589 9.32341C308.629 9.52301 308.649 9.82241 308.649 10.2216C308.689 10.6607 308.689 11.1797 308.649 11.7785C308.649 12.3773 308.669 12.8963 308.709 13.3354L308.948 14.7725C308.988 14.7725 309.128 14.7925 309.368 14.8324C309.607 14.8324 309.867 14.8324 310.146 14.8324C310.465 14.8324 310.745 14.8324 310.984 14.8324C311.224 14.8324 311.363 14.8324 311.403 14.8324C311.603 14.7925 311.763 14.7925 311.882 14.8324C312.042 14.8723 312.202 14.8923 312.362 14.8923L313.679 15.012C314.078 14.9721 314.497 14.9522 314.936 14.9522C315.415 14.9122 315.815 14.8923 316.134 14.8923C316.214 14.8923 316.294 14.8923 316.373 14.8923C316.493 14.8523 316.593 14.8523 316.673 14.8923C316.753 14.9322 316.813 15.052 316.853 15.2516C316.892 15.4112 316.892 15.5709 316.853 15.7306L316.912 16.509C316.952 16.6687 316.952 16.8683 316.912 17.1078C316.873 17.3474 316.873 17.547 316.912 17.7066L316.853 18.3653V18.7246C316.693 18.8843 316.633 18.9841 316.673 19.024C316.713 19.024 316.633 19.024 316.433 19.024C316.194 19.024 315.795 19.044 315.236 19.0839C314.717 19.0839 314.178 19.0639 313.619 19.024L310.924 19.1438Z" fill="#383838" stroke="white" stroke-width="0.5"/>
<path d="M296.928 32.2576C296.928 32.3375 296.928 32.4971 296.928 32.7367C296.928 32.9363 296.928 33.1758 296.928 33.4552C296.928 33.6947 296.928 33.9343 296.928 34.1738C296.928 34.4133 296.928 34.5929 296.928 34.7127C296.928 35.7906 296.928 36.5291 296.928 36.9283C296.967 37.3275 296.987 37.8065 296.987 38.3654C296.987 38.4852 296.908 38.585 296.748 38.6648C296.628 38.7846 296.488 38.8644 296.329 38.9043H292.496V38.2456L292.197 33.9941C292.197 33.2357 292.177 32.4971 292.137 31.7786C292.137 31.06 292.117 30.3414 292.077 29.6229V28.0061C292.077 27.4472 292.057 26.9083 292.017 26.3894C291.977 25.8305 291.997 25.2716 292.077 24.7127V22.6768C292.077 21.9582 292.057 21.2596 292.017 20.581C292.017 19.8624 291.997 19.1638 291.957 18.4852C291.957 18.2856 291.957 18.1259 291.957 18.0061C291.997 17.8464 292.017 17.6668 292.017 17.4672C292.017 16.6289 291.997 15.8704 291.957 15.1917C291.957 14.5131 291.957 13.8544 291.957 13.2157C291.957 12.5371 291.957 11.8385 291.957 11.1199C291.957 10.4013 291.938 9.60293 291.898 8.72468V7.04804C291.858 6.60892 291.818 6.16979 291.778 5.73067C291.778 5.25163 291.778 4.79255 291.778 4.35343V4.17379C291.778 4.0141 291.798 3.87438 291.838 3.75463C291.878 3.71471 292.097 3.65483 292.496 3.57498C292.696 3.53506 292.955 3.53506 293.275 3.57498C293.554 3.65483 293.894 3.69475 294.293 3.69475C294.692 3.65482 295.131 3.63486 295.61 3.63486C296.009 3.63486 296.329 3.67478 296.568 3.75463C296.848 3.83446 296.987 3.91431 296.987 3.99415V13.3355C296.947 13.6548 296.928 13.9742 296.928 14.2935C296.967 14.573 296.967 14.8724 296.928 15.1917C296.888 15.6309 296.868 16.07 296.868 16.5091C296.908 16.9482 296.928 17.3874 296.928 17.8265V18.8444C296.928 18.9642 296.928 19.1039 296.928 19.2636C296.928 19.3834 296.908 19.5231 296.868 19.6828C296.828 19.7626 296.808 19.9223 296.808 20.1618C296.808 20.3614 296.808 20.581 296.808 20.8205C296.848 21.06 296.868 21.2995 296.868 21.5391C296.908 21.7786 296.928 21.9383 296.928 22.0181C296.967 23.0959 296.947 23.7347 296.868 23.9343C296.828 24.1339 296.808 24.2935 296.808 24.4133C296.768 24.9722 296.768 25.5311 296.808 26.09C296.888 26.6488 296.928 27.2077 296.928 27.7666C296.967 28.5251 296.967 29.2836 296.928 30.042C296.928 30.7606 296.928 31.4991 296.928 32.2576Z" fill="#383838" stroke="white" stroke-width="0.5"/>
<path d="M260.436 3.69465C260.915 3.73457 261.574 3.73457 262.412 3.69465C263.29 3.65473 264.109 3.65473 264.867 3.69465C265.626 3.69465 266.165 3.67469 266.484 3.63477C266.843 3.59485 267.143 3.57489 267.382 3.57489C267.662 3.57489 267.961 3.63477 268.28 3.75453V7.64675C268.28 8.76451 268.26 9.70263 268.221 10.4611C268.181 11.1797 268.141 11.7984 268.101 12.3174C268.061 12.7964 268.021 13.1956 267.981 13.515C267.941 13.8344 267.921 14.1338 267.921 14.4132V18.1857C267.921 18.5449 267.941 18.9442 267.981 19.3833C268.021 19.8224 268.021 20.1617 267.981 20.4012C267.861 20.7206 267.841 21.0799 267.921 21.4791C267.961 21.6787 267.981 21.9581 267.981 22.3174C267.981 22.6368 267.981 22.9761 267.981 23.3354C267.981 23.6946 267.981 24.034 267.981 24.3533C267.981 24.6727 268.001 24.9122 268.041 25.0719C268.041 25.4711 268.021 26.0899 267.981 26.9282C267.981 27.7665 267.961 28.6447 267.921 29.5629C267.921 30.4412 267.901 31.2994 267.861 32.1378C267.861 32.9761 267.881 33.5948 267.921 33.994H270.556C270.955 34.1537 271.314 34.2136 271.634 34.1737C271.953 34.0938 272.292 34.1338 272.652 34.2935H276.304C277.183 34.4931 278.101 34.6128 279.059 34.6527C280.057 34.6927 280.955 34.6727 281.753 34.5929H284.149C284.189 34.6727 284.248 34.7525 284.328 34.8324C284.368 34.9122 284.408 34.9921 284.448 35.0719C284.488 35.1517 284.508 35.2316 284.508 35.3114C284.468 35.5509 284.448 35.8703 284.448 36.2695C284.448 36.6288 284.448 36.9881 284.448 37.3473C284.448 37.7066 284.428 38.006 284.388 38.2455C284.348 38.525 284.308 38.6647 284.268 38.6647H281.394C280.396 38.7046 279.538 38.7246 278.819 38.7246C278.101 38.7645 277.382 38.7845 276.664 38.7845H273.55C272.911 38.6248 272.332 38.5449 271.813 38.5449C271.294 38.5449 270.755 38.5449 270.197 38.5449H269.538C269.219 38.5449 268.879 38.525 268.52 38.4851C268.201 38.4851 267.861 38.505 267.502 38.5449C266.943 38.5449 266.244 38.5849 265.406 38.6647C264.568 38.7445 263.829 38.7845 263.191 38.7845H260.795C260.596 38.2256 260.476 37.7066 260.436 37.2276C260.436 36.7885 260.436 36.3893 260.436 36.03V33.036C260.636 32.7166 260.676 32.3972 260.556 32.0779C260.476 31.7186 260.436 31.3394 260.436 30.9402L260.556 27.2276C260.476 26.4292 260.456 25.6308 260.496 24.8324C260.536 23.994 260.556 23.1757 260.556 22.3773C260.516 22.2176 260.496 21.9781 260.496 21.6587C260.496 21.3394 260.496 21 260.496 20.6408C260.496 20.2815 260.496 19.9422 260.496 19.6228C260.496 19.2635 260.476 18.9841 260.436 18.7845C260.356 18.3853 260.376 18.026 260.496 17.7066C260.536 17.4671 260.536 17.1278 260.496 16.6887C260.456 16.2495 260.436 15.8503 260.436 15.4911V3.69465Z" fill="#383838" stroke="white" stroke-width="0.5"/>
<path d="M218.839 15.6106C219.637 16.9679 220.476 18.4051 221.354 19.922C222.272 21.439 223.25 23.0358 224.288 24.7124C224.488 25.2713 224.727 25.7903 225.007 26.2693C225.326 26.7085 225.645 27.0877 225.965 27.4071C226.125 27.7264 226.324 28.1256 226.564 28.6047C226.803 29.0438 227.043 29.423 227.282 29.7424L227.402 29.5029V26.449C227.402 26.3691 227.402 26.3292 227.402 26.3292C227.442 26.2893 227.462 26.2294 227.462 26.1496C227.302 25.2314 227.262 24.413 227.342 23.6945C227.462 22.936 227.482 22.1376 227.402 21.2993C227.442 21.0198 227.462 20.7603 227.462 20.5208C227.462 20.2813 227.462 20.0418 227.462 19.8023L227.342 16.6885V9.26334C227.342 9.10366 227.342 8.80426 227.342 8.36513C227.382 7.92601 227.402 7.44697 227.402 6.92801C227.402 6.36913 227.402 5.8302 227.402 5.31124C227.402 4.79228 227.402 4.39308 227.402 4.11364C227.402 3.95396 227.422 3.81424 227.462 3.69448C227.542 3.5348 227.741 3.45496 228.061 3.45496H230.037C230.396 3.45496 230.815 3.51484 231.294 3.63459C231.773 3.75436 232.093 3.81424 232.252 3.81424H232.552C232.552 5.17152 232.552 6.56873 232.552 8.00585C232.592 9.40306 232.612 10.7404 232.612 12.0178C232.651 13.2554 232.691 14.413 232.731 15.4909C232.771 16.5288 232.811 17.3671 232.851 18.0059C232.811 18.3252 232.791 18.6446 232.791 18.9639C232.831 19.2434 232.831 19.5428 232.791 19.8621C232.751 20.3013 232.731 20.7404 232.731 21.1795C232.771 21.6186 232.791 22.0578 232.791 22.4969V25.3711C232.831 26.449 232.811 27.3073 232.731 27.946C232.691 28.5847 232.671 28.9639 232.671 29.0837C232.632 29.6426 232.612 30.2015 232.612 30.7603C232.612 31.3192 232.612 31.8781 232.612 32.437C232.651 33.1955 232.651 33.954 232.612 34.7124C232.572 35.431 232.572 36.1695 232.612 36.928C232.612 37.2474 232.612 37.5468 232.612 37.8262C232.612 38.1057 232.632 38.4051 232.671 38.7244C232.671 38.924 232.452 39.0238 232.013 39.0238H230.037C229.558 39.1037 229.178 39.1236 228.899 39.0837C228.62 39.0438 228.42 39.0238 228.3 39.0238C228.101 38.5049 227.921 38.0657 227.761 37.7065C227.602 37.3871 227.422 37.0677 227.222 36.7484C227.063 36.429 226.883 36.1096 226.683 35.7903C226.484 35.431 226.244 35.0118 225.965 34.5328C225.845 34.3332 225.685 34.0737 225.486 33.7544C225.286 33.3951 225.107 33.1156 224.947 32.916C224.707 32.6366 224.508 32.3172 224.348 31.958C224.188 31.5588 223.929 31.1995 223.57 30.8801C223.051 30.0817 222.552 29.2633 222.073 28.425C221.594 27.5468 221.075 26.6685 220.516 25.7903C219.957 24.952 219.318 24.0937 218.6 23.2154C217.881 22.2973 217.162 21.2793 216.444 20.1615C216.125 19.4031 215.645 18.6246 215.007 17.8262C214.408 17.0278 213.889 16.2693 213.45 15.5508C213.45 15.4709 213.43 15.6306 213.39 16.0298C213.39 16.429 213.39 16.8881 213.39 17.4071C213.39 17.8861 213.37 18.3452 213.33 18.7843C213.33 19.1835 213.33 19.3831 213.33 19.3831V19.8621C213.37 20.1815 213.37 20.5009 213.33 20.8202C213.29 21.0997 213.27 21.3991 213.27 21.7184L213.15 29.1436L213.27 32.2574C213.27 32.4969 213.27 32.7364 213.27 32.9759C213.31 33.2154 213.31 33.4749 213.27 33.7544C213.35 34.3132 213.37 34.912 213.33 35.5508C213.29 36.1496 213.29 36.7484 213.33 37.3472C213.37 37.9061 213.35 38.3053 213.27 38.5448C213.23 38.7843 213.17 38.944 213.091 39.0238H208.36C208.041 39.0238 207.701 39.0238 207.342 39.0238C207.023 39.0637 206.703 39.0637 206.384 39.0238C206.344 39.0238 206.304 38.8442 206.264 38.4849C206.264 38.1655 206.264 37.7663 206.264 37.2873C206.264 36.8482 206.264 36.3891 206.264 35.91C206.264 35.431 206.264 35.0717 206.264 34.8322C206.264 34.2733 206.264 33.7144 206.264 33.1556C206.304 32.5568 206.304 31.9779 206.264 31.419C206.264 30.8601 206.284 30.3212 206.324 29.8023C206.364 29.2434 206.364 28.6845 206.324 28.1256C206.324 27.7264 206.304 27.4071 206.264 27.1675C206.264 26.8881 206.264 26.6486 206.264 26.449L206.144 25.5508C206.144 25.4709 206.144 25.431 206.144 25.431C206.184 25.3911 206.204 25.3312 206.204 25.2514C206.045 24.3332 205.985 23.435 206.025 22.5568C206.105 21.6785 206.105 20.8202 206.025 19.9819C206.065 19.7025 206.085 19.443 206.085 19.2035C206.085 18.9639 206.085 18.7244 206.085 18.4849L205.965 15.3711L206.144 7.94597C206.144 7.62661 206.125 7.32721 206.085 7.04777C206.085 6.72841 206.065 6.40905 206.025 6.08968L206.384 5.55076C206.584 5.55076 206.923 5.55076 207.402 5.55076C207.881 5.51084 208.44 5.51084 209.079 5.55076C209.598 5.55076 209.977 5.5308 210.216 5.49088C210.496 5.41104 210.795 5.37112 211.115 5.37112C211.314 5.37112 211.474 5.41104 211.594 5.49088C211.753 5.5308 211.953 5.55076 212.192 5.55076H213.45C213.57 5.87012 213.729 6.20945 213.929 6.56873C214.168 6.92801 214.388 7.30725 214.588 7.70645C215.027 8.5847 215.346 9.34318 215.546 9.9819C215.785 10.5807 216.005 11.0198 216.204 11.2993C216.364 11.4989 216.564 11.7783 216.803 12.1376C217.043 12.4969 217.282 12.8761 217.522 13.2753C217.761 13.6745 217.981 14.0937 218.18 14.5328C218.42 14.932 218.639 15.2913 218.839 15.6106Z" fill="#383838" stroke="white" stroke-width="0.5"/>
<path d="M173.455 30.4012C173.735 29.6028 174.014 28.8243 174.294 28.0658C174.613 27.2674 174.912 26.469 175.192 25.6706C175.391 25.0718 175.651 24.473 175.97 23.8742C176.29 23.2754 176.569 22.7365 176.808 22.2575C177.008 21.5788 177.208 21.0399 177.407 20.6407C177.647 20.2016 177.787 19.9221 177.826 19.8024C177.826 19.7225 177.906 19.5229 178.066 19.2036C178.266 18.8842 178.485 18.3652 178.725 17.6467C178.844 17.2874 178.944 16.9082 179.024 16.509C179.144 16.1098 179.284 15.7305 179.443 15.3712L180.88 11.8982C181.04 11.4591 181.14 11.1397 181.18 10.9401C181.26 10.7006 181.319 10.501 181.359 10.3413C181.399 10.1816 181.439 10.002 181.479 9.80237C181.519 9.60277 181.639 9.28341 181.838 8.84428C182.038 8.40516 182.198 7.986 182.317 7.5868C182.477 7.1876 182.657 6.76844 182.856 6.32932C182.936 6.0898 183.016 5.85027 183.096 5.61075C183.176 5.37123 183.256 5.13171 183.335 4.89219C183.455 4.57283 183.555 4.29339 183.635 4.05387C183.715 3.81435 183.795 3.53491 183.874 3.21554C183.954 3.1357 184.014 3.0359 184.054 2.91614C184.094 2.75646 184.174 2.57682 184.294 2.37722C184.533 2.21754 184.733 2.1377 184.892 2.1377C185.052 2.09778 185.212 2.07782 185.371 2.07782H188.126C188.206 2.2375 188.246 2.39718 188.246 2.55686C188.246 2.67662 188.286 2.81634 188.365 2.97602L188.605 3.87423L188.785 4.35327L189.443 6.20956L190.521 9.26345L190.94 10.0419C191.02 10.1217 191.1 10.3014 191.18 10.5808C191.26 10.8203 191.379 11.1397 191.539 11.5389C191.739 12.0579 191.938 12.6567 192.138 13.3353C192.377 13.974 192.597 14.6127 192.797 15.2515C193.076 16.2495 193.296 16.988 193.455 17.467C193.655 17.9461 193.854 18.4451 194.054 18.964C194.174 19.1237 194.254 19.3034 194.294 19.503C194.333 19.7026 194.393 19.9022 194.473 20.1018L195.252 22.5569L196.27 24.7125C196.389 25.0718 196.509 25.4311 196.629 25.7904C196.789 26.1098 196.968 26.4291 197.168 26.7485C197.487 27.5469 197.747 28.2854 197.946 28.964C198.146 29.6028 198.405 30.3213 198.725 31.1197C198.884 31.479 199.044 31.8183 199.204 32.1377C199.403 32.4571 199.563 32.7964 199.683 33.1557C199.763 33.3553 199.842 33.5549 199.922 33.7545C200.002 33.9541 200.082 34.1537 200.162 34.3533C200.361 34.7125 200.521 35.0918 200.641 35.491C200.801 35.8503 200.98 36.2495 201.18 36.6886C201.26 36.9281 201.359 37.1676 201.479 37.4072C201.599 37.6467 201.679 37.8662 201.719 38.0658C201.519 38.0658 201.319 38.0459 201.12 38.006C200.92 37.966 200.741 37.9461 200.581 37.9461H199.563C199.204 37.9461 198.884 37.9461 198.605 37.9461C198.325 37.986 198.086 38.006 197.886 38.006C197.687 37.5269 197.387 37.0678 196.988 36.6287C196.629 36.1497 196.25 35.5708 195.85 34.8922C195.771 34.6926 195.691 34.5129 195.611 34.3533C195.531 34.1936 195.451 34.0339 195.371 33.8742C195.292 33.6347 195.052 33.2954 194.653 32.8563C194.294 32.4171 194.094 32.0778 194.054 31.8383C193.735 31.479 193.495 31.1996 193.335 31C193.216 30.7605 193.056 30.5409 192.856 30.3413C192.697 30.3413 192.497 30.3413 192.258 30.3413C192.018 30.3014 191.799 30.2614 191.599 30.2215C191.359 30.1816 191.1 30.1616 190.82 30.1616H189.383C189.184 30.1616 188.964 30.1816 188.725 30.2215C188.525 30.2215 188.206 30.2415 187.767 30.2814C187.327 30.2814 186.729 30.3014 185.97 30.3413C185.212 30.3413 184.194 30.3413 182.916 30.3413H182.497C182.178 30.3413 181.918 30.3812 181.719 30.4611C181.559 30.501 181.319 30.461 181 30.3413C180.88 30.2614 180.581 30.2415 180.102 30.2814C179.663 30.3213 179.363 30.3612 179.204 30.4012L178.425 30.4611L178.126 30.8802C178.046 31.1197 177.906 31.3992 177.707 31.7185C177.507 32.0379 177.308 32.3573 177.108 32.6766C176.908 32.996 176.709 33.3153 176.509 33.6347C176.349 33.9541 176.23 34.2135 176.15 34.4131L175.731 35.491L174.234 38.2455C174.154 38.4052 174.034 38.485 173.874 38.485C173.715 38.485 173.595 38.5249 173.515 38.6048H170.461C170.302 38.4451 170.222 38.3453 170.222 38.3054C170.222 38.2654 170.302 38.1457 170.461 37.9461C170.461 37.7864 170.521 37.5469 170.641 37.2275C170.761 36.9481 170.82 36.7285 170.82 36.5688C171.02 36.2495 171.18 35.9301 171.3 35.6108C171.459 35.2515 171.619 34.9121 171.779 34.5928L173.455 30.4012ZM186.03 15.5509C185.83 15.6307 185.691 15.7305 185.611 15.8503C185.531 15.97 185.451 16.1098 185.371 16.2694C185.212 16.8283 184.992 17.3872 184.713 17.9461C184.473 18.465 184.234 19.004 183.994 19.5628C183.795 19.962 183.595 20.3413 183.395 20.7006C183.196 21.0199 183.016 21.3792 182.856 21.7784C182.497 22.5768 182.138 23.3752 181.779 24.1736C181.419 24.9321 181.02 25.6906 180.581 26.4491H180.94C181.26 26.4491 181.539 26.469 181.779 26.509C182.058 26.5489 182.337 26.5289 182.617 26.4491C182.856 26.3692 183.076 26.3493 183.276 26.3892C183.515 26.4291 183.735 26.4491 183.934 26.4491C184.613 26.4491 185.311 26.4491 186.03 26.4491C186.749 26.4092 187.547 26.4291 188.425 26.509C188.864 26.5489 189.264 26.5489 189.623 26.509C190.022 26.469 190.421 26.4491 190.82 26.4491H191.359C191.319 26.2894 191.26 26.1696 191.18 26.0898C191.14 25.97 191.08 25.8503 191 25.7305C190.84 25.4111 190.661 25.1317 190.461 24.8922C190.302 24.6527 190.162 24.3533 190.042 23.994L187.946 19.8024C187.866 19.6028 187.787 19.3433 187.707 19.0239L186.03 15.5509Z" fill="#383838" stroke="white" stroke-width="0.5"/>
<path d="M157.48 38.2456C157.28 38.2456 157.101 38.2256 156.941 38.1857C156.781 38.1857 156.621 38.1657 156.462 38.1258C156.342 38.1258 156.242 38.1258 156.162 38.1258C155.763 38.1657 155.424 38.1857 155.144 38.1857C154.905 38.1857 154.665 38.1657 154.426 38.1258C154.186 38.0859 153.947 38.026 153.707 37.9462C153.468 37.8663 153.168 37.7466 152.809 37.5869C152.53 37.4272 152.21 37.3074 151.851 37.2276C151.492 37.1877 151.172 37.0679 150.893 36.8683C150.414 36.509 149.875 36.2096 149.276 35.9701C148.717 35.6907 148.198 35.3713 147.719 35.012C147.639 34.9322 147.54 34.8523 147.42 34.7725C147.3 34.6528 147.2 34.533 147.12 34.4132C146.721 34.1338 146.342 33.8743 145.983 33.6348C145.663 33.3553 145.364 33.036 145.085 32.6767C144.925 32.517 144.685 32.2176 144.366 31.7785C144.087 31.2995 143.787 30.8005 143.468 30.2815C143.188 29.7625 142.929 29.2635 142.689 28.7845C142.49 28.3054 142.39 27.9661 142.39 27.7665C142.39 27.1677 142.27 26.5889 142.031 26.03C141.791 25.4711 141.671 24.8923 141.671 24.2935C141.671 24.2535 141.671 24.0739 141.671 23.7545C141.671 23.4352 141.671 23.0559 141.671 22.6168C141.671 22.1378 141.671 21.6188 141.671 21.0599C141.671 20.501 141.671 19.9821 141.671 19.503C141.711 18.9042 141.751 18.4052 141.791 18.006C141.831 17.5669 141.871 17.3274 141.911 17.2875C142.35 15.3713 142.809 13.6348 143.288 12.0779C143.807 10.521 144.645 9.10384 145.803 7.8264C146.122 7.14776 146.621 6.66871 147.3 6.38927C147.819 6.06991 148.318 5.75055 148.797 5.43119C149.276 5.07191 149.795 4.73258 150.354 4.41322C150.913 4.1737 151.472 3.9741 152.031 3.81442C152.629 3.65474 153.109 3.49506 153.468 3.33538C154.107 3.29546 154.725 3.1757 155.324 2.9761C155.963 2.7765 156.562 2.6767 157.121 2.6767C157.6 2.6767 158.158 2.69666 158.797 2.73658C159.436 2.73658 159.995 2.83638 160.474 3.03598C161.113 3.11582 161.751 3.2755 162.39 3.51502C163.069 3.71462 163.667 4.01402 164.186 4.41322C164.426 4.61282 164.665 4.75254 164.905 4.83239C165.144 4.91222 165.364 4.99207 165.564 5.07191V6.02999C165.564 6.22959 165.564 6.46911 165.564 6.74855C165.604 7.02799 165.623 7.24755 165.623 7.40724C165.623 7.7266 165.584 7.96612 165.504 8.1258C165.424 8.20564 165.384 8.3254 165.384 8.48508C165.384 8.60484 165.344 8.66472 165.264 8.66472H165.144C165.025 8.66472 164.905 8.60484 164.785 8.48508C164.586 8.36532 164.386 8.30544 164.186 8.30544C163.987 8.26552 163.807 8.2256 163.647 8.18568C163.408 8.14576 163.208 8.10584 163.049 8.06592C162.889 7.98608 162.649 7.94616 162.33 7.94616C162.13 7.94616 161.911 7.94616 161.671 7.94616C161.432 7.94616 161.192 7.96612 160.953 8.00604C160.633 8.04596 160.194 8.06592 159.635 8.06592C159.116 8.026 158.757 8.026 158.558 8.06592C158.278 8.10584 158.039 8.16572 157.839 8.24556C157.679 8.3254 157.52 8.40524 157.36 8.48508C157.001 8.68468 156.681 8.86432 156.402 9.024C156.122 9.18368 155.823 9.36332 155.504 9.56292C154.665 10.2416 153.907 10.9801 153.228 11.7785C152.27 12.9362 151.552 14.0739 151.073 15.1917C150.594 16.2695 150.354 17.547 150.354 19.024V22.6767L151.731 27.3474C151.811 27.8264 151.991 28.2456 152.27 28.6048C152.55 28.9641 152.789 29.3434 152.989 29.7426C153.667 30.4212 154.266 30.9601 154.785 31.3593C155.344 31.7186 155.903 32.0979 156.462 32.4971C156.781 32.6567 157.16 32.8164 157.6 32.9761C158.039 33.0959 158.418 33.2555 158.737 33.4551C158.977 33.4551 159.276 33.515 159.635 33.6348C160.035 33.7545 160.753 33.8144 161.791 33.8144H163.827C164.146 33.8144 164.406 33.8144 164.606 33.8144C164.845 33.7745 165.065 33.6547 165.264 33.4551H165.564L166.641 36.509C166.282 36.7086 165.943 36.8683 165.623 36.9881C165.344 37.1078 165.025 37.2476 164.665 37.4072C164.067 37.5669 163.528 37.6867 163.049 37.7665C162.57 37.8863 162.051 38.046 161.492 38.2456H157.48Z" fill="#383838" stroke="white" stroke-width="0.5"/>
<path d="M136.655 11.4191C136.855 12.3771 137.074 13.3751 137.314 14.4131C137.593 15.4111 137.733 16.429 137.733 17.467C137.893 17.946 137.973 18.5248 137.973 19.2035C138.012 19.8422 138.032 20.3811 138.032 20.8203C138.032 21.3392 138.012 21.7983 137.973 22.1975C137.973 22.5568 137.893 23.0159 137.733 23.5747C137.733 24.0538 137.713 24.6127 137.673 25.2514C137.633 25.8901 137.493 26.449 137.254 26.928C137.134 27.2075 137.074 27.5668 137.074 28.0059C137.074 28.445 136.975 28.8841 136.775 29.3233L136.056 30.9999C135.777 31.6785 135.458 32.3572 135.098 33.0358C134.779 33.6745 134.46 34.2135 134.14 34.6526C134.06 34.8123 133.901 35.0119 133.661 35.2514C133.462 35.4909 133.242 35.7504 133.002 36.0298C132.763 36.3093 132.503 36.5688 132.224 36.8083C131.984 37.0478 131.785 37.2474 131.625 37.4071C131.266 37.7664 130.907 38.0857 130.547 38.3652C130.188 38.6845 129.769 38.944 129.29 39.1436C129.13 39.2234 128.971 39.2833 128.811 39.3232C128.651 39.4031 128.472 39.463 128.272 39.5029C127.753 39.5827 127.274 39.6426 126.835 39.6825C126.396 39.7624 125.957 39.8223 125.517 39.8622C125.238 39.8622 124.859 39.8622 124.38 39.8622C123.941 39.8622 123.482 39.8422 123.002 39.8023C122.523 39.8023 122.084 39.7823 121.685 39.7424C121.286 39.7025 121.026 39.6626 120.907 39.6227C120.188 39.3432 119.509 39.0638 118.871 38.7843C118.272 38.5049 117.713 38.0857 117.194 37.5268L114.679 35.431C113.801 34.7125 113.102 33.8941 112.583 32.9759C112.064 32.0179 111.645 31.0199 111.326 29.9819C111.126 29.5029 111.006 29.0638 110.967 28.6646C110.927 28.2654 110.807 27.9061 110.607 27.5867C110.408 26.429 110.228 25.3712 110.068 24.4131C109.949 23.455 109.909 22.457 109.949 21.4191C109.988 20.94 110.008 20.4011 110.008 19.8023C110.008 19.2035 110.048 18.6246 110.128 18.0658C110.168 17.946 110.228 17.6466 110.308 17.1676C110.388 16.6885 110.468 16.1895 110.547 15.6706C110.627 15.1117 110.707 14.5927 110.787 14.1137C110.867 13.5947 110.927 13.2753 110.967 13.1556C111.326 11.9979 111.685 10.96 112.044 10.0418C112.444 9.08373 112.963 8.2454 113.601 7.52684L115.338 5.61067C115.537 5.41107 115.777 5.23143 116.056 5.07175C116.376 4.87215 116.655 4.69251 116.895 4.53283L118.212 3.75439C118.611 3.47494 119.19 3.23542 119.949 3.03582C120.707 2.7963 121.346 2.63662 121.865 2.55678C122.384 2.47694 122.943 2.41706 123.541 2.37714C124.18 2.33722 124.819 2.31726 125.458 2.31726C126.016 2.31726 126.476 2.37714 126.835 2.4969C127.234 2.61666 127.673 2.75638 128.152 2.91606C128.312 2.95598 128.551 3.03582 128.871 3.15558C129.19 3.23542 129.529 3.37514 129.889 3.57474C130.288 3.73443 130.687 3.95399 131.086 4.23343C131.485 4.47295 131.825 4.73243 132.104 5.01187C132.344 5.29131 132.683 5.59071 133.122 5.91008C133.601 6.18952 133.941 6.50888 134.14 6.86816C134.22 7.02784 134.32 7.18752 134.44 7.3472C134.599 7.50688 134.739 7.66656 134.859 7.82624C135.178 8.30528 135.557 8.90409 135.996 9.62265C136.436 10.3412 136.655 10.94 136.655 11.4191ZM124.14 24.8921C124.3 24.8921 124.4 24.8522 124.44 24.7724C124.48 24.6925 124.599 24.6326 124.799 24.5927C125.078 24.5528 125.278 24.433 125.398 24.2334C125.517 23.9939 125.677 23.7743 125.877 23.5747C126.036 22.6965 126.116 21.8981 126.116 21.1795C126.156 20.461 126.176 19.6626 126.176 18.7843C126.176 18.465 126.096 18.1656 125.937 17.8861C125.777 17.5668 125.517 17.3272 125.158 17.1676C124.799 16.968 124.519 16.8682 124.32 16.8682C124.12 16.8682 123.861 16.968 123.541 17.1676C123.462 17.1676 123.382 17.1875 123.302 17.2274C123.222 17.2674 123.142 17.3073 123.062 17.3472L122.823 17.467C122.623 17.8262 122.444 18.1656 122.284 18.4849C122.124 18.8043 122.044 19.1236 122.044 19.443V22.437C122.124 23.0757 122.284 23.5747 122.523 23.934C122.763 24.2933 123.102 24.6127 123.541 24.8921H124.14Z" fill="#383838" stroke="white" stroke-width="0.5"/>
<path d="M79.1254 24.533C78.9258 24.2535 78.7062 23.9542 78.4667 23.6348C78.2671 23.3154 78.0276 22.9561 77.7481 22.5569C77.1892 21.7985 76.6902 21.0799 76.2511 20.4013C75.8519 19.6827 75.5525 19.2236 75.3529 19.024L73.6763 17.1078C73.5565 16.9482 73.4168 16.7286 73.2571 16.4492C73.0974 16.1697 72.9777 15.9701 72.8978 15.8504C72.6982 15.5709 72.4986 15.2915 72.299 15.012C72.1393 14.6927 71.9597 14.4132 71.7601 14.1737C71.5206 13.8544 71.2212 13.4551 70.8619 12.9761C70.5425 12.4971 70.3629 12.2575 70.323 12.2575L70.3829 14.9522L69.9637 19.8025C69.9637 20.0021 69.9437 20.4412 69.9038 21.1198C69.9038 21.7585 69.8838 22.4571 69.8439 23.2156C69.804 23.9741 69.7641 24.6927 69.7242 25.3713C69.7242 26.01 69.7242 26.4292 69.7242 26.6288C69.6843 27.4671 69.6244 28.2056 69.5445 28.8444C69.4647 29.4831 69.4447 30.2216 69.4847 31.0599C69.4847 31.4591 69.4447 31.8384 69.3649 32.1977C69.325 32.517 69.325 32.8763 69.3649 33.2755C69.3649 33.4751 69.3649 33.6747 69.3649 33.8743C69.3649 34.034 69.3449 34.2136 69.305 34.4132C69.3449 34.9721 69.3449 35.551 69.305 36.1498C69.2651 36.7086 69.2451 37.2675 69.2451 37.8264C68.7661 38.026 68.327 38.1458 67.9278 38.1857C67.5685 38.2256 67.1094 38.2456 66.5505 38.2456C66.3908 38.2855 66.1713 38.3054 65.8918 38.3054C65.6523 38.3454 65.4128 38.3653 65.1733 38.3653C64.9337 38.4052 64.7341 38.4252 64.5745 38.4252C64.4148 38.4651 64.3549 38.4851 64.3948 38.4851C64.1952 38.4851 63.9557 38.505 63.6763 38.545C63.4367 38.5849 63.1573 38.6048 62.8379 38.6048C62.6783 38.6048 62.5186 38.5849 62.3589 38.545C62.1992 38.545 62.0395 38.4452 61.8799 38.2456L62.1194 36.3893V36.03C62.0795 35.4312 62.0395 34.8524 61.9996 34.2935C61.9597 33.6947 61.9797 33.1757 62.0595 32.7366C62.0994 32.4971 62.1194 32.1777 62.1194 31.7785C62.1593 31.3793 62.1793 30.9601 62.1793 30.521C62.1793 30.0819 62.1793 29.6627 62.1793 29.2635C62.1793 28.8244 62.1593 28.4452 62.1194 28.1258C62.0395 27.4871 61.9797 26.9482 61.9397 26.509C61.9397 26.03 61.9397 25.2715 61.9397 24.2336C61.9797 23.3953 61.9996 22.7366 61.9996 22.2575C61.9996 21.7785 61.9797 21.1198 61.9397 20.2815V19.7426C61.9397 19.1837 61.8998 18.6847 61.82 18.2456C61.7801 17.8064 61.7801 17.4272 61.82 17.1078C61.9797 16.2695 62.0196 15.4512 61.9397 14.6528C61.8998 13.8144 61.9198 12.9362 61.9996 12.018C62.0395 11.3394 62.0395 10.6807 61.9996 10.042C61.9996 9.40325 61.9996 8.74457 61.9996 8.06593C61.9996 7.38729 62.0196 6.70864 62.0595 6.03C62.1393 5.35136 62.1793 4.67271 62.1793 3.99407C62.1793 3.67471 62.1992 3.49507 62.2391 3.45515C62.319 3.37531 62.5186 3.33539 62.8379 3.33539H69.0056C69.2052 3.53499 69.4447 3.87431 69.7242 4.35335C70.0036 4.79247 70.2431 5.15176 70.4427 5.4312C70.7621 5.8304 71.0615 6.28948 71.3409 6.80844C71.6603 7.3274 71.9397 7.78649 72.1793 8.18569C72.4986 8.86433 72.8379 9.38329 73.1972 9.74257C73.5565 10.1019 73.8559 10.5809 74.0954 11.1797C74.295 11.3793 74.4547 11.6188 74.5745 11.8983C74.7342 12.1378 74.8938 12.3374 75.0535 12.4971C75.2531 12.8164 75.5126 13.2156 75.832 13.6947C76.1513 14.1737 76.4707 14.5729 76.79 14.8923C77.309 15.5709 77.7481 16.1897 78.1074 16.7486C78.5066 17.3074 78.9856 17.9062 79.5445 18.545C79.8639 18.9841 80.1433 19.3833 80.3829 19.7426C80.6224 20.1019 80.8819 20.5011 81.1613 20.9402C81.4807 21.2995 81.82 21.7186 82.1793 22.1977C82.5785 22.6368 83.0176 23.1358 83.4966 23.6947C83.5765 23.6547 83.7162 23.515 83.9158 23.2755C84.1553 22.9961 84.335 22.7565 84.4547 22.5569C84.814 22.1977 85.1733 21.7386 85.5326 21.1797C85.9318 20.6208 86.311 20.1218 86.6703 19.6827L87.2691 18.4851C87.3489 18.3254 87.4487 18.1857 87.5685 18.0659C87.6882 17.9062 87.788 17.7665 87.8679 17.6468L89.4847 15.1917C89.6443 14.7925 89.9637 14.2935 90.4427 13.6947C90.9617 13.0959 91.4607 12.3773 91.9397 11.539L92.2391 11.1797C92.6383 10.5011 92.9976 9.86234 93.317 9.26353C93.6364 8.62481 93.9557 7.96613 94.2751 7.28749C94.5146 6.76852 94.7541 6.36932 94.9936 6.08988C95.2731 5.77052 95.5525 5.35136 95.832 4.8324C95.9916 4.51303 96.0715 4.31343 96.0715 4.2336C96.1114 4.11383 96.1912 3.93419 96.311 3.69467H101.76C102.439 3.85435 102.918 3.93419 103.197 3.93419C103.477 3.93419 103.676 3.93419 103.796 3.93419C103.996 3.93419 104.175 3.95415 104.335 3.99407C104.535 3.99407 104.794 3.99407 105.113 3.99407V6.44916C104.954 7.1278 104.854 7.72661 104.814 8.24557C104.814 8.76453 104.814 9.28349 104.814 9.80245V15.8504C104.814 16.5689 104.834 17.2675 104.874 17.9462C104.914 18.5849 104.934 19.2835 104.934 20.042C104.974 20.2416 104.994 20.4611 104.994 20.7007C104.994 20.9003 104.994 21.1198 104.994 21.3593C105.034 21.7985 105.034 22.1178 104.994 22.3174C104.994 22.517 105.014 22.8364 105.054 23.2755V24.0539C105.014 24.2935 104.974 24.7126 104.934 25.3114C104.894 25.8703 104.854 26.4691 104.814 27.1078C104.774 27.7066 104.734 28.3054 104.694 28.9042C104.694 29.4631 104.694 29.8623 104.694 30.1019C104.694 30.4212 104.714 30.8204 104.754 31.2995C104.794 31.7785 104.814 32.1777 104.814 32.4971C104.814 33.2955 104.794 34.1338 104.754 35.012C104.754 35.8504 104.654 36.6887 104.455 37.527V38.9042C104.295 39.1038 104.075 39.2036 103.796 39.2036C103.557 39.2436 103.337 39.2635 103.137 39.2635C102.778 39.1837 102.399 39.1637 102 39.2036C101.64 39.2436 101.381 39.2635 101.221 39.2635H96.6104C96.5306 38.7046 96.4707 38.1458 96.4308 37.5869C96.3908 37.028 96.3709 36.4891 96.3709 35.9701C96.3709 35.7306 96.3709 35.3913 96.3709 34.9522C96.4108 34.513 96.4308 34.0539 96.4308 33.5749C96.4308 33.0559 96.4308 32.5769 96.4308 32.1378C96.4308 31.6987 96.4108 31.3593 96.3709 31.1198C96.3709 30.8404 96.3908 30.4212 96.4308 29.8623C96.4707 29.2635 96.4906 28.8244 96.4906 28.545L96.4308 26.509C96.4308 26.1098 96.4108 25.7905 96.3709 25.551C96.3709 25.2715 96.3709 25.032 96.3709 24.8324L96.2511 23.6947C96.2511 23.6148 96.2511 23.515 96.2511 23.3953C96.291 23.2356 96.311 23.1158 96.311 23.036C96.1513 22.1178 96.1314 21.2196 96.2511 20.3414C96.4108 19.4631 96.4507 18.6048 96.3709 17.7665C96.4108 17.4871 96.4308 17.2276 96.4308 16.9881C96.4308 16.7486 96.4308 16.509 96.4308 16.2695L96.311 13.1557V12.4971C96.1513 12.4172 96.0715 12.3773 96.0715 12.3773C96.0316 12.4172 96.0116 12.4571 96.0116 12.4971C95.4926 12.9761 95.0336 13.4951 94.6344 14.054C94.2352 14.5729 93.836 15.1717 93.4368 15.8504L91.5805 18.7845C91.3809 19.1438 91.1413 19.5629 90.8619 20.042C90.5825 20.4811 90.303 20.9402 90.0236 21.4192C89.7441 21.8983 89.4647 22.3573 89.1853 22.7965C88.9457 23.1957 88.7062 23.535 88.4667 23.8144C88.3469 23.9741 88.1673 24.2136 87.9278 24.533C87.7282 24.8524 87.4886 25.2116 87.2092 25.6108C86.9697 25.9701 86.7102 26.3494 86.4308 26.7486C86.1912 27.1478 85.9517 27.507 85.7122 27.8264L85.4727 28.1857C85.2731 28.2655 84.9936 28.3054 84.6344 28.3054C84.315 28.2655 84.0555 28.2456 83.8559 28.2456C83.4966 28.2456 83.1374 28.2655 82.7781 28.3054C82.4188 28.3054 82.0595 28.3054 81.7002 28.3054C81.3809 27.9861 81.0615 27.547 80.7421 26.9881C80.4228 26.4292 80.1433 25.9901 79.9038 25.6707L79.1254 24.533Z" fill="#383838" stroke="white" stroke-width="0.5"/>
<path d="M55.7264 11.4191C55.926 12.3771 56.1456 13.3751 56.3851 14.4131C56.6646 15.4111 56.8043 16.429 56.8043 17.467C56.964 17.946 57.0438 18.5248 57.0438 19.2035C57.0837 19.8422 57.1037 20.3811 57.1037 20.8203C57.1037 21.3392 57.0837 21.7983 57.0438 22.1975C57.0438 22.5568 56.964 23.0159 56.8043 23.5747C56.8043 24.0538 56.7843 24.6127 56.7444 25.2514C56.7045 25.8901 56.5648 26.449 56.3252 26.928C56.2055 27.2075 56.1456 27.5668 56.1456 28.0059C56.1456 28.445 56.0458 28.8841 55.8462 29.3233L55.1276 30.9999C54.8482 31.6785 54.5288 32.3572 54.1696 33.0358C53.8502 33.6745 53.5308 34.2135 53.2115 34.6526C53.1316 34.8123 52.972 35.0119 52.7324 35.2514C52.5328 35.4909 52.3133 35.7504 52.0737 36.0298C51.8342 36.3093 51.5747 36.5688 51.2953 36.8083C51.0558 37.0478 50.8562 37.2474 50.6965 37.4071C50.3372 37.7664 49.9779 38.0857 49.6187 38.3652C49.2594 38.6845 48.8402 38.944 48.3612 39.1436C48.2015 39.2234 48.0418 39.2833 47.8821 39.3232C47.7225 39.4031 47.5428 39.463 47.3432 39.5029C46.8242 39.5827 46.3452 39.6426 45.9061 39.6825C45.467 39.7624 45.0278 39.8223 44.5887 39.8622C44.3093 39.8622 43.93 39.8622 43.451 39.8622C43.0119 39.8622 42.5528 39.8422 42.0737 39.8023C41.5947 39.8023 41.1556 39.7823 40.7564 39.7424C40.3572 39.7025 40.0977 39.6626 39.9779 39.6227C39.2594 39.3432 38.5807 39.0638 37.942 38.7843C37.3432 38.5049 36.7843 38.0857 36.2654 37.5268L33.7504 35.431C32.8721 34.7125 32.1735 33.8941 31.6546 32.9759C31.1356 32.0179 30.7165 31.0199 30.3971 29.9819C30.1975 29.5029 30.0777 29.0638 30.0378 28.6646C29.9979 28.2654 29.8781 27.9061 29.6785 27.5867C29.4789 26.429 29.2993 25.3712 29.1396 24.4131C29.0199 23.455 28.9799 22.457 29.0199 21.4191C29.0598 20.94 29.0797 20.4011 29.0797 19.8023C29.0797 19.2035 29.1197 18.6246 29.1995 18.0658C29.2394 17.946 29.2993 17.6466 29.3791 17.1676C29.459 16.6885 29.5388 16.1895 29.6187 15.6706C29.6985 15.1117 29.7783 14.5927 29.8582 14.1137C29.938 13.5947 29.9979 13.2753 30.0378 13.1556C30.3971 11.9979 30.7564 10.96 31.1157 10.0418C31.5149 9.08373 32.0338 8.2454 32.6725 7.52684L34.4091 5.61067C34.6087 5.41107 34.8482 5.23143 35.1276 5.07175C35.447 4.87215 35.7264 4.69251 35.966 4.53283L37.2833 3.75439C37.6825 3.47494 38.2614 3.23542 39.0199 3.03582C39.7783 2.7963 40.4171 2.63662 40.936 2.55678C41.455 2.47694 42.0139 2.41706 42.6127 2.37714C43.2514 2.33722 43.8901 2.31726 44.5288 2.31726C45.0877 2.31726 45.5468 2.37714 45.9061 2.4969C46.3053 2.61666 46.7444 2.75638 47.2234 2.91606C47.3831 2.95598 47.6227 3.03582 47.942 3.15558C48.2614 3.23542 48.6007 3.37514 48.96 3.57474C49.3592 3.73443 49.7584 3.95399 50.1576 4.23343C50.5568 4.47295 50.8961 4.73243 51.1755 5.01187C51.4151 5.29131 51.7544 5.59071 52.1935 5.91008C52.6726 6.18952 53.0119 6.50888 53.2115 6.86816C53.2913 7.02784 53.3911 7.18752 53.5109 7.3472C53.6706 7.50688 53.8103 7.66656 53.93 7.82624C54.2494 8.30528 54.6286 8.90409 55.0678 9.62265C55.5069 10.3412 55.7264 10.94 55.7264 11.4191ZM43.2115 24.8921C43.3712 24.8921 43.471 24.8522 43.5109 24.7724C43.5508 24.6925 43.6706 24.6326 43.8702 24.5927C44.1496 24.5528 44.3492 24.433 44.469 24.2334C44.5887 23.9939 44.7484 23.7743 44.948 23.5747C45.1077 22.6965 45.1875 21.8981 45.1875 21.1795C45.2274 20.461 45.2474 19.6626 45.2474 18.7843C45.2474 18.465 45.1676 18.1656 45.0079 17.8861C44.8482 17.5668 44.5887 17.3272 44.2294 17.1676C43.8702 16.968 43.5907 16.8682 43.3911 16.8682C43.1915 16.8682 42.932 16.968 42.6127 17.1676C42.5328 17.1676 42.453 17.1875 42.3731 17.2274C42.2933 17.2674 42.2135 17.3073 42.1336 17.3472L41.8941 17.467C41.6945 17.8262 41.5149 18.1656 41.3552 18.4849C41.1955 18.8043 41.1157 19.1236 41.1157 19.443V22.437C41.1955 23.0757 41.3552 23.5747 41.5947 23.934C41.8342 24.2933 42.1735 24.6127 42.6127 24.8921H43.2115Z" fill="#383838" stroke="white" stroke-width="0.5"/>
<path d="M16.527 38.6048C16.4471 38.6048 16.3074 38.6248 16.1078 38.6647C15.9082 38.7046 15.7086 38.7246 15.509 38.7246C15.3094 38.7645 15.1297 38.7845 14.9701 38.7845C14.8503 38.8244 14.8104 38.8443 14.8503 38.8443H11.9162C11.2774 38.7645 10.7385 38.7046 10.2994 38.6647C9.9002 38.6647 9.54092 38.6847 9.22156 38.7246C9.14172 38.7246 9.06188 38.6847 8.98204 38.6048C8.9022 38.5649 8.84232 38.525 8.8024 38.4851C8.76248 38.1258 8.74252 37.5869 8.74252 36.8683C8.78244 36.1497 8.8024 35.5909 8.8024 35.1917V34.3533C8.88224 33.6747 8.9022 33.0759 8.86228 32.5569C8.82236 31.998 8.8024 31.3793 8.8024 30.7006V29.3833C9.002 28.505 9.04192 27.5869 8.92216 26.6288C8.84232 25.6707 8.8024 24.7925 8.8024 23.994V8.72459C8.8024 8.32539 8.7026 8.12579 8.503 8.12579C7.94411 8.08587 7.50499 8.06591 7.18563 8.06591C6.86627 8.06591 6.42715 8.08587 5.86826 8.12579C5.62874 8.12579 5.20958 8.06591 4.61078 7.94615C4.0519 7.82639 3.67266 7.78647 3.47305 7.82639C3.27345 7.90623 2.85429 7.90623 2.21557 7.82639C1.61677 7.74655 1.21757 7.70663 1.01796 7.70663C0.818364 7.70663 0.638723 7.70663 0.479042 7.70663C0.319361 7.66671 0.159681 7.58687 0 7.46711V3.75453C0.159681 3.67469 0.399202 3.63477 0.718563 3.63477C1.03792 3.63477 1.35729 3.63477 1.67665 3.63477C2.07585 3.63477 2.43513 3.63477 2.75449 3.63477C3.07385 3.63477 3.37325 3.61481 3.6527 3.57489C3.73254 3.57489 4.01198 3.59485 4.49102 3.63477C4.97006 3.67469 5.36926 3.71461 5.68862 3.75453C5.92815 3.67469 6.16767 3.63477 6.40719 3.63477C7.00599 3.59485 7.56487 3.59485 8.08383 3.63477C8.44312 3.67469 8.7026 3.67469 8.86228 3.63477C9.02196 3.59485 9.26148 3.57489 9.58084 3.57489H10.5389L12.1557 3.69465C12.5549 3.69465 12.9541 3.69465 13.3533 3.69465C13.7525 3.65473 14.1517 3.65473 14.5509 3.69465C15.4691 3.77449 16.3473 3.81441 17.1856 3.81441C18.0639 3.77449 18.7824 3.71461 19.3413 3.63477C19.6208 3.63477 20.1198 3.67469 20.8383 3.75453C21.5569 3.83437 22.2555 3.89425 22.9341 3.93417C23.3733 3.97409 23.7325 3.97409 24.012 3.93417C24.2914 3.89425 24.5309 3.89425 24.7305 3.93417V6.68866C24.7305 6.84834 24.7505 6.94814 24.7904 6.98807C24.8303 7.02799 24.8104 7.20762 24.7305 7.52699C24.6906 7.68667 24.5309 7.78647 24.2515 7.82639C23.9721 7.82639 23.7525 7.82639 23.5928 7.82639C22.5549 7.98607 21.5968 8.04595 20.7186 8.00603C19.8802 7.96611 19.0619 7.94615 18.2635 7.94615C17.9441 7.94615 17.6846 7.94615 17.485 7.94615C17.3254 7.94615 17.1258 7.96611 16.8862 8.00603V9.38327C16.8862 9.70264 16.8663 10.1817 16.8264 10.8204C16.8264 11.4591 16.8264 11.9581 16.8264 12.3174C16.8264 12.4771 16.8264 12.5968 16.8264 12.6767C16.8264 12.7565 16.8064 12.8763 16.7665 13.036C16.7665 13.1557 16.7465 13.3553 16.7066 13.6348C16.6667 13.8743 16.5868 14.2336 16.4671 14.7126C16.4671 15.3913 16.4671 15.9701 16.4671 16.4491C16.4671 16.9282 16.4671 17.3673 16.4671 17.7665C16.507 18.1657 16.527 18.5649 16.527 18.9641C16.527 19.3234 16.527 19.7625 16.527 20.2815V20.8803C16.3673 21.5589 16.3274 22.2376 16.4072 22.9162C16.487 23.5948 16.527 24.2735 16.527 24.9521V38.6048Z" fill="#383838" stroke="white" stroke-width="0.5"/>
</mask>
<g mask="url(#mask0_9_342)">
<rect y="-3" width="520" height="56" fill="url(#paint0_linear_9_342)"/>
</g>
<defs>
<linearGradient id="paint0_linear_9_342" x1="0" y1="25" x2="520" y2="25" gradientUnits="userSpaceOnUse">
<stop stop-color="#E73D13"/>
<stop offset="0.255" stop-color="#E3BA0C"/>
<stop offset="0.49" stop-color="#13C98F"/>
<stop offset="0.745" stop-color="#4C24ED"/>
<stop offset="1" stop-color="#DF18CB"/>
</linearGradient>
</defs>
</svg>
